<svg xmlns="http://www.w3.org/2000/svg" xmlns:xlink="http://www.w3.org/1999/xlink" viewBox="0 0 481.32 104.21"><defs><style>.cls-1{fill:url(#linear-gradient);}.cls-2{fill:url(#linear-gradient-2);}.cls-3{fill:#00dab7;}.cls-4{fill:#231f20;stroke:#231f20;stroke-miterlimit:10;}</style><linearGradient id="linear-gradient" x1="-10.99" y1="-180.97" x2="582.21" y2="-180.97" gradientTransform="matrix(0.38, 0, 0, -0.38, 4.2, 1.83)" gradientUnits="userSpaceOnUse"><stop offset="0" stop-color="#00dab7"/><stop offset="1" stop-color="#00b4e7"/></linearGradient><linearGradient id="linear-gradient-2" x1="-10.73" y1="-44.62" x2="582.48" y2="-44.62" xlink:href="#linear-gradient"/></defs><title>Asset 16</title><g id="Layer_2" data-name="Layer 2"><g id="Layer_1-2" data-name="Layer 1"><path class="cls-1" d="M184.47,59.4a28.63,28.63,0,0,0-3.63-3.51c-.38-.31-.8-.61-1.22-.92s-.65-.46-1-.65h0a26.51,26.51,0,0,0-6.61-3.13,27.6,27.6,0,0,0-5.8-.92H124a7.94,7.94,0,1,0-13.87,7.45L100.35,71H47.86a7.95,7.95,0,1,0,0,5.65h55.32l11.69-15.82a7.8,7.8,0,0,0,1.72.2A8,8,0,0,0,124,55.89h43.55a21.48,21.48,0,0,1-3.71,42.63H30.67a25,25,0,0,1-.22-50h.49l2.45,0v0H85.64a8,8,0,1,0,0-5.66H28.57v.08A30.4,30.4,0,0,0,13,48.48a30.69,30.69,0,0,0,17.72,55.73H163.88A27.15,27.15,0,0,0,184.47,59.4ZM38.2,73.8a2.29,2.29,0,1,1,2.29,2.29A2.3,2.3,0,0,1,38.2,73.8Zm76.13-20.74a2.3,2.3,0,1,1,2.29,2.29A2.3,2.3,0,0,1,114.33,53.06Zm-19-7.37a2.32,2.32,0,0,1-1,1.87,5.29,5.29,0,0,1-1.6.38,2.27,2.27,0,0,1,0-4.51,4.76,4.76,0,0,1,1.6.39A2.31,2.31,0,0,1,95.35,45.69Z"/><path class="cls-2" d="M35.37,37.21a7.95,7.95,0,0,0,10.28-4.59,7.79,7.79,0,0,0,0-5.65c0-.08,0-.15-.08-.19A28.18,28.18,0,0,1,71.24,23.3l2.18.77,1.18-2a33.59,33.59,0,0,1,59.79,4.13H117.62a7.95,7.95,0,1,0,0,5.65H142.1c-.26-1.34-.65-2.6-1-3.74-.23-.69-.42-1.34-.65-1.88h0c-.15-.46-.34-.88-.5-1.33,0,0,0-.08,0-.12l-.12-.34c0-.08,0-.12-.07-.19a4,4,0,0,1-.2-.46s0-.08-.07-.15,0,0,0-.08a.31.31,0,0,1,0-.12A39.44,39.44,0,0,0,127.28,8.06,39.18,39.18,0,0,0,83.85,5.27,39.7,39.7,0,0,0,71,17.23a34.43,34.43,0,0,0-9.28-1.3,33.75,33.75,0,0,0-20.09,6.61,7.7,7.7,0,0,0-3.36-.77,7.94,7.94,0,0,0-8,8,7.71,7.71,0,0,0,1.38,4.43A7.08,7.08,0,0,0,35.37,37.21ZM108,29.11a2.3,2.3,0,1,1,2.3,2.29A2.3,2.3,0,0,1,108,29.11Zm-69.71,3a2.3,2.3,0,1,1,2.29-2.3A2.3,2.3,0,0,1,38.24,32.13Z"/><path class="cls-3" d="M230.94,97.09a6.38,6.38,0,0,1-2.6-.52,4.33,4.33,0,0,1-1.79-1.43,3.73,3.73,0,0,1-.67-2.11h2a2.83,2.83,0,0,0,.85,1.74,3.12,3.12,0,0,0,2.18.7h0a3.19,3.19,0,0,0,2.15-.68,2.23,2.23,0,0,0,.79-1.76h0a2,2,0,0,0-.46-1.36,2.88,2.88,0,0,0-1.16-.8,17.87,17.87,0,0,0-1.87-.59h0a16.77,16.77,0,0,1-2.32-.75,3.86,3.86,0,0,1-1.49-1.19,3.52,3.52,0,0,1-.62-2.17h0a3.79,3.79,0,0,1,.61-2.12,4,4,0,0,1,1.71-1.43,6,6,0,0,1,2.53-.51h0a5.25,5.25,0,0,1,3.37,1,3.72,3.72,0,0,1,1.48,2.73h-2.1a2.2,2.2,0,0,0-.88-1.48,3.11,3.11,0,0,0-2.06-.64h0a3,3,0,0,0-2,.62,2.12,2.12,0,0,0-.76,1.73h0a1.92,1.92,0,0,0,.46,1.31,3,3,0,0,0,1.11.76q.66.26,1.86.6h0a15.93,15.93,0,0,1,2.33.79,3.88,3.88,0,0,1,1.51,1.2,3.44,3.44,0,0,1,.63,2.19h0a3.89,3.89,0,0,1-.57,2,4.18,4.18,0,0,1-1.68,1.53,5.54,5.54,0,0,1-2.62.59ZM248,82.3h1.91V96.94H248V90.3h-7.45v6.64h-1.92V82.3h1.92v6.43H248Zm15,14.64-1.17-3.25h-6.39l-1.17,3.25h-2l5.29-14.55h2.21L265,96.94Zm-7-4.81h5.29l-2.64-7.39Zm21.34,4.81H275l-3.49-6h-2.31v6h-1.91V82.3H272a6.24,6.24,0,0,1,2.8.57,4,4,0,0,1,1.71,1.53,4.25,4.25,0,0,1,.57,2.21h0a4.11,4.11,0,0,1-3.49,4.2h0Zm-8.09-13.06v5.54H272a3.23,3.23,0,0,0,2.33-.76,2.76,2.76,0,0,0,.77-2h0a2.63,2.63,0,0,0-.76-2,3.31,3.31,0,0,0-2.34-.71h-2.82Zm18.73,0h-6v4.89h5.33v1.58H282v5h6v1.57h-7.87V82.28H288ZM312.8,82.3h2.05l-4.24,14.64h-2.14l-3.4-11.78-3.53,11.78-2.12,0-4.1-14.66h2l3.19,12.41,3.53-12.41h2.14l3.36,12.37Zm4.15,0h1.92V96.94H317Zm4.27,0h9.91v1.56h-4V96.94h-1.91V83.86h-4Zm21.63,0h1.91V96.94h-1.91V90.3h-7.46v6.64h-1.91V82.3h1.91v6.43h7.46Zm10.06,7.31a7.72,7.72,0,0,1,1-3.85,7.08,7.08,0,0,1,2.64-2.68,7.23,7.23,0,0,1,3.7-1h0a7.41,7.41,0,0,1,4.18,1.16A6.46,6.46,0,0,1,367,86.54h-2.29a4.49,4.49,0,0,0-1.76-2,5,5,0,0,0-2.74-.72h0a5.33,5.33,0,0,0-2.75.72,4.91,4.91,0,0,0-1.91,2,6.54,6.54,0,0,0-.69,3.08h0a6.51,6.51,0,0,0,.69,3.06,5,5,0,0,0,1.91,2,5.33,5.33,0,0,0,2.75.72h0A5.1,5.1,0,0,0,363,94.7a4.47,4.47,0,0,0,1.76-2H367a6.47,6.47,0,0,1-2.61,3.24,7.57,7.57,0,0,1-4.18,1.15h0a7.32,7.32,0,0,1-3.7-1,7,7,0,0,1-2.64-2.66,7.71,7.71,0,0,1-1-3.84Zm23.56,7.48a7.36,7.36,0,0,1-3.72-1,7.1,7.1,0,0,1-2.66-2.67,7.75,7.75,0,0,1-1-3.85h0a7.72,7.72,0,0,1,1-3.85,7.1,7.1,0,0,1,2.66-2.67,7.36,7.36,0,0,1,3.72-1h0a7.39,7.39,0,0,1,3.74,1,6.89,6.89,0,0,1,2.64,2.66,7.61,7.61,0,0,1,1,3.86h0a7.67,7.67,0,0,1-1,3.87,6.93,6.93,0,0,1-2.64,2.65,7.39,7.39,0,0,1-3.74,1Zm0-1.66a5.36,5.36,0,0,0,2.76-.72,5,5,0,0,0,1.93-2,6.35,6.35,0,0,0,.71-3.07h0a6.31,6.31,0,0,0-.71-3.08,4.87,4.87,0,0,0-1.92-2,5.32,5.32,0,0,0-2.77-.72h0a5.32,5.32,0,0,0-2.77.72,5.08,5.08,0,0,0-1.93,2,6.54,6.54,0,0,0-.7,3.08h0a6.59,6.59,0,0,0,.7,3.07,5.13,5.13,0,0,0,1.94,2,5.36,5.36,0,0,0,2.76.72Zm21.38-13.15V96.94h-1.92l-7.68-11.66V96.94h-1.91V82.28h1.91l7.68,11.64V82.28Zm3.25,0h8.27v1.56H403v4.93h5.17v1.56H403v6.59H401.1Zm10.58,0h1.92V96.94h-1.92Zm9.73,0a9,9,0,0,1,4.15.9,6.18,6.18,0,0,1,2.68,2.55,7.71,7.71,0,0,1,.94,3.9h0a7.71,7.71,0,0,1-.94,3.9,6.11,6.11,0,0,1-2.68,2.52,9.24,9.24,0,0,1-4.15.87h-4.56V82.3Zm0,13.07a5.82,5.82,0,0,0,4.32-1.51,5.7,5.7,0,0,0,1.5-4.21h0a5.29,5.29,0,0,0-5.82-5.79h-2.65V95.37Zm18.16-11.51h-6v4.89h5.33v1.58h-5.33v5h6v1.57H431.7V82.28h7.87ZM454,82.28V96.94h-1.91l-7.69-11.66V96.94h-1.91V82.28h1.91l7.69,11.64V82.28Zm2.54,7.33a7.72,7.72,0,0,1,1-3.85,7,7,0,0,1,2.63-2.68,7.24,7.24,0,0,1,3.71-1h0A7.44,7.44,0,0,1,468,83.27a6.5,6.5,0,0,1,2.6,3.27h-2.29a4.53,4.53,0,0,0-1.75-2,5,5,0,0,0-2.74-.72h0a5.33,5.33,0,0,0-2.75.72,4.91,4.91,0,0,0-1.91,2,6.54,6.54,0,0,0-.7,3.08h0a6.51,6.51,0,0,0,.7,3.06,5,5,0,0,0,1.91,2,5.33,5.33,0,0,0,2.75.72h0a5.13,5.13,0,0,0,2.74-.71,4.5,4.5,0,0,0,1.75-2h2.29a6.51,6.51,0,0,1-2.6,3.24,7.59,7.59,0,0,1-4.18,1.15h0a7.33,7.33,0,0,1-3.71-1,6.93,6.93,0,0,1-2.63-2.66,7.71,7.71,0,0,1-1-3.84Zm24.8-5.75h-6v4.89h5.33v1.58h-5.33v5h6v1.57h-7.87V82.28h7.87Z"/><path class="cls-4" d="M244.17,13.29h5.71V45.22a11.28,11.28,0,0,1-3.29,8.52,11.91,11.91,0,0,1-8.68,3.19h0a11.87,11.87,0,0,1-8.74-3.25q-3.28-3.26-3.29-8.9h5.64a8.36,8.36,0,0,0,1.65,5.15,5.72,5.72,0,0,0,4.74,2h0A5.73,5.73,0,0,0,242.62,50a7.28,7.28,0,0,0,1.55-4.8h0ZM263.89,17A3.82,3.82,0,0,1,260,13.16h0a3.81,3.81,0,0,1,3.85-3.84h0a3.52,3.52,0,0,1,2.63,1.11,3.76,3.76,0,0,1,1.09,2.73h0a3.73,3.73,0,0,1-1.09,2.73A3.49,3.49,0,0,1,263.89,17ZM261,22.52h5.65v34H261ZM291,57.06a17.39,17.39,0,0,1-8.65-2.17,15.41,15.41,0,0,1-6.07-6.17,19,19,0,0,1-2.2-9.27h0a18.49,18.49,0,0,1,2.26-9.21,15.7,15.7,0,0,1,6.17-6.14A18,18,0,0,1,291.29,22h0A17.92,17.92,0,0,1,300,24.1a15.63,15.63,0,0,1,6.17,6.11,18.24,18.24,0,0,1,2.27,9.24h0a18,18,0,0,1-2.33,9.27,15.94,15.94,0,0,1-6.29,6.17A18,18,0,0,1,291,57.06Zm0-5a11.83,11.83,0,0,0,5.71-1.43,10.75,10.75,0,0,0,4.31-4.28,13.63,13.63,0,0,0,1.64-6.94h0a13.86,13.86,0,0,0-1.61-6.94,10.53,10.53,0,0,0-4.22-4.25,11.73,11.73,0,0,0-5.64-1.4h0a11.73,11.73,0,0,0-5.67,1.4,10.27,10.27,0,0,0-4.13,4.25,14.41,14.41,0,0,0-1.55,6.94h0a14.8,14.8,0,0,0,1.52,7,10.1,10.1,0,0,0,4.06,4.24A11.33,11.33,0,0,0,291,52.1Zm38.32-38.81a26.76,26.76,0,0,1,12.25,2.63,18.56,18.56,0,0,1,7.93,7.53A23.16,23.16,0,0,1,352.3,35h0a22.92,22.92,0,0,1-2.76,11.5,18.25,18.25,0,0,1-7.93,7.44,27.15,27.15,0,0,1-12.25,2.57H315.91V13.29Zm0,38.56q8.37,0,12.77-4.43T346.53,35h0q0-8.05-4.43-12.59t-12.74-4.53h-7.81v34Zm36-23.81a10.91,10.91,0,0,1,4.25-4.52,13.1,13.1,0,0,1,6.73-1.62h0v5.83h-1.49q-9.48,0-9.49,10.29h0V56.5h-5.64v-34h5.64Zm20.4-11a3.81,3.81,0,0,1-3.84-3.85h0a3.79,3.79,0,0,1,3.84-3.84h0a3.54,3.54,0,0,1,2.64,1.11,3.8,3.8,0,0,1,1.08,2.73h0a3.76,3.76,0,0,1-1.08,2.73A3.51,3.51,0,0,1,385.78,17Zm-2.91,5.51h5.64v34h-5.64Zm17.29,0,10.61,28.77,10.54-28.77h6L414,56.5h-6.57l-13.33-34ZM463.9,38.21a31.58,31.58,0,0,1-.19,3.41H436.56a10.68,10.68,0,0,0,11,10.66h0a10.41,10.41,0,0,0,6.11-1.7A9,9,0,0,0,457.14,46h6.08a14.57,14.57,0,0,1-5.46,8,16.41,16.41,0,0,1-10.17,3.07h0a17.18,17.18,0,0,1-8.65-2.17,15.32,15.32,0,0,1-6-6.17,19.18,19.18,0,0,1-2.17-9.27h0a19.5,19.5,0,0,1,2.11-9.24,14.9,14.9,0,0,1,5.92-6.11A17.69,17.69,0,0,1,447.59,22h0a17.1,17.1,0,0,1,8.56,2.1,14.62,14.62,0,0,1,5.74,5.8,17.15,17.15,0,0,1,2,8.34ZM458.07,37a10.46,10.46,0,0,0-1.42-5.55A9.32,9.32,0,0,0,452.77,28a12.15,12.15,0,0,0-5.42-1.21h0a10.48,10.48,0,0,0-7.29,2.73A11.14,11.14,0,0,0,436.62,37h21.45Z"/></g></g></svg>