<svg xmlns="http://www.w3.org/2000/svg" xmlns:xlink="http://www.w3.org/1999/xlink" viewBox="0 0 442.98 138.7"><defs><style>.cls-1{fill:url(#linear-gradient);}.cls-2{fill:#0c0528;}.cls-3{fill:url(#linear-gradient-2);}.cls-4{fill:url(#linear-gradient-3);}.cls-5{fill:url(#linear-gradient-4);}.cls-6{fill:url(#linear-gradient-5);}.cls-7{fill:url(#linear-gradient-6);}.cls-8{fill:url(#linear-gradient-7);}.cls-9{fill:url(#linear-gradient-8);}.cls-10{fill:url(#linear-gradient-9);}.cls-11{fill:url(#linear-gradient-10);}.cls-12{fill:url(#linear-gradient-11);}.cls-13{fill:url(#linear-gradient-12);}.cls-14{fill:#5076ff;}.cls-15{fill:url(#linear-gradient-13);}.cls-16,.cls-17{fill:none;stroke-miterlimit:10;}.cls-16{stroke:#0e0ea5;}.cls-17{stroke:#1515bc;}</style><linearGradient id="linear-gradient" x1="407.67" y1="-502.09" x2="476.44" y2="-337.05" gradientTransform="matrix(0.22, 0, 0, -0.22, 7.03, -23.39)" gradientUnits="userSpaceOnUse"><stop offset="0.01" stop-color="#20e8fe"/><stop offset="1" stop-color="#b5f5fe"/></linearGradient><linearGradient id="linear-gradient-2" x1="411.71" y1="-536.17" x2="452.43" y2="-380.02" gradientTransform="matrix(0.22, 0, 0, -0.22, 7.03, -23.39)" gradientUnits="userSpaceOnUse"><stop offset="0" stop-color="#244afa"/><stop offset="1" stop-color="#8c50ff"/></linearGradient><linearGradient id="linear-gradient-3" x1="406.08" y1="-534.7" x2="446.8" y2="-378.55" xlink:href="#linear-gradient-2"/><linearGradient id="linear-gradient-4" x1="285.69" y1="-179.96" x2="188.27" y2="-233.83" gradientTransform="matrix(0.22, 0, 0, -0.22, 7.03, -23.39)" gradientUnits="userSpaceOnUse"><stop offset="0" stop-color="#0c0528"/><stop offset="1" stop-color="#703fef"/></linearGradient><linearGradient id="linear-gradient-5" x1="538.85" y1="-643.52" x2="670.66" y2="-579.34" xlink:href="#linear-gradient-4"/><linearGradient id="linear-gradient-6" x1="143.11" y1="-447.33" x2="399.31" y2="-447.33" gradientTransform="matrix(0.22, 0, 0, -0.22, 7.03, -23.39)" gradientUnits="userSpaceOnUse"><stop offset="0" stop-color="#7e4afa"/><stop offset="1" stop-color="#8c50ff"/></linearGradient><linearGradient id="linear-gradient-7" x1="440.61" y1="-339.23" x2="699.61" y2="-339.23" xlink:href="#linear-gradient-6"/><linearGradient id="linear-gradient-8" x1="185.26" y1="-195.89" x2="390.65" y2="-195.89" gradientTransform="matrix(0.22, 0.01, 0.01, -0.22, 49.37, -1.51)" gradientUnits="userSpaceOnUse"><stop offset="0" stop-color="#c59ffa"/><stop offset="1" stop-color="#8c50ff"/></linearGradient><linearGradient id="linear-gradient-9" x1="2322.74" y1="-3640.15" x2="2487.84" y2="-3640.15" gradientTransform="matrix(0.17, -0.15, -0.15, -0.17, -838.98, -177.43)" xlink:href="#linear-gradient-8"/><linearGradient id="linear-gradient-10" x1="540.87" y1="-124.69" x2="756.35" y2="-222.11" xlink:href="#linear-gradient-4"/><linearGradient id="linear-gradient-11" x1="496.79" y1="-303.78" x2="412.28" y2="-490.15" xlink:href="#linear-gradient-2"/><linearGradient id="linear-gradient-12" x1="-31.49" y1="-439.98" x2="814.71" y2="-439.98" gradientTransform="matrix(0.22, 0, 0, -0.22, 7.03, -23.39)" xlink:href="#linear-gradient-8"/><linearGradient id="linear-gradient-13" x1="495.37" y1="-303.13" x2="410.86" y2="-489.5" gradientTransform="matrix(0.22, 0, 0, -0.22, 7.03, -23.39)" xlink:href="#linear-gradient-8"/></defs><title>Xtream Drive</title><g id="Layer_2" data-name="Layer 2"><g id="Layer_1-2" data-name="Layer 1"><circle class="cls-1" cx="103.99" cy="74.58" r="27.54"/><path class="cls-2" d="M135.73,82.28c.05-.4.09-.78.11-1.18C135.8,81.55,135.75,81.92,135.73,82.28Z"/><path class="cls-3" d="M110,101.07c-26.38.4-48-26.27-29.31-45.5a33.11,33.11,0,0,0-3.55,3.93c-.47.63-1.05,1.5-1.49,2.12a23,23,0,0,0-.72,23.16c11.3,22.09,52.11,27.88,60,2.62l.09-.34a28.42,28.42,0,0,0,.76-4.78C134.37,93,123.78,100.84,110,101.07Z"/><path class="cls-4" d="M126,102.47c-18.74,15.48-57.2,1-55.33-26.82L70.44,78a31.85,31.85,0,0,0,.21,5.18c3.79,23.52,35.78,35.65,54.29,20.6l.32-.29a33.14,33.14,0,0,0,3.93-4.31l.24-.34A20.65,20.65,0,0,1,126,102.47Z"/><path class="cls-5" d="M41.23,11c7.71-7.73,23.85-5.38,43,4.56C61.4.92,41.74-4.33,33.52,3.89,24.41,13,31.87,36.23,50.39,62.18,36.7,39.55,32.43,19.81,41.23,11Z"/><path class="cls-6" d="M157.51,127.67c-7.71,7.7-23.86,5.38-43-4.56,22.81,14.67,42.49,19.92,50.68,11.7,9.12-9.11,1.66-32.34-16.86-58.29C162,99.15,166.31,118.89,157.51,127.67Z"/><path class="cls-7" d="M44.27,76.45A53.81,53.81,0,0,1,94.7,22.74c-.62,0-1.25,0-1.88,0a53.83,53.83,0,0,0,0,107.66c1.14,0,2.28,0,3.4-.11A53.82,53.82,0,0,1,44.27,76.45Z"/><path class="cls-8" d="M160.9,78.75a58.82,58.82,0,0,1-.33,6.26A49.15,49.15,0,0,0,114.2,19.74a48.63,48.63,0,0,0-8.76.79A58.29,58.29,0,0,1,160.9,78.75Z"/><path class="cls-9" d="M134.37,54.23a28.47,28.47,0,0,0-2.06-3.73,30.86,30.86,0,0,0-42.66-9.31c-.22.13-.44.29-.67.44A36.33,36.33,0,0,1,134.37,54.23Z"/><path class="cls-10" d="M98.92,95.64C77.08,80.25,65.06,59.72,72.05,49.78c2.35-3.32,6.55-5,11.93-5.27-8.8-1-15.88.85-19.41,5.83C56.87,61.26,69,83.09,91.73,99.1c21.78,15.37,45.36,19.79,54,10.45C135.62,113.48,116.75,108.21,98.92,95.64Z"/><path class="cls-11" d="M176.85,21.89a15.79,15.79,0,0,1,1.83,7.66c2.59-5.61,3.06-10.54,1-14.36C173.88,4.58,150,5.78,121.28,16.66,148.51,8.84,170.46,10.16,176.85,21.89Z"/><path class="cls-12" d="M135.35,67.05c-.54-1.36-1.34-3.15-2-4.47-.12-.22-.25-.42-.38-.62,5.33,10.2,1.31,21.17-9.56,26.06-21.53,9.67-49.7-9.4-43.07-29.17a19.6,19.6,0,0,1,1.43-3.26h0s2.37-5.94,11.77-10l0,0c-22.49,6.81-22.63,33-.22,44.52C114.42,101,142.19,89.41,135.35,67.05Z"/><path class="cls-13" d="M116.54,87c-49.13,25.93-95.81,34-104.23,18-4.85-9.18,4-24.37,21.86-40.54C9.11,84.31-4.49,103.84,1.34,114.87,10.05,131.4,59,122.71,110.6,95.46,153.17,73,184.29,44.94,189,26.51,180.67,44,153.06,67.67,116.54,87Z"/><path class="cls-14" d="M101.6,81.63c13,4.72,26.78-.87,29.22-11.27a27.16,27.16,0,0,0-2-6.3c.36,5.78-3,11.1-9.24,13.62-15.08,6.1-34.29-7.39-28.95-20.32,4.49-10.9,23.41-11,28.1-.09a7.68,7.68,0,0,1,.42,3.59c-1,6.48-11.32,8.29-15.81,2.77a5.28,5.28,0,0,1-1.3-3.79,4.14,4.14,0,0,1,2.19-3,6.69,6.69,0,0,1,2.62-.89,7.4,7.4,0,0,1,2.72.29c.4.11.76.29,1.14.42a3.64,3.64,0,0,1,1,.5c.11.08,0-.16,0,0,.06-2.95-5-4.47-9.38-2.82-6.5,2.46-6.12,11.37,2.54,15.23S125.77,68.21,122,57.45c0,0,0,0,0,0a14.86,14.86,0,0,0-4.78-5.89,27.36,27.36,0,0,0-13.38-3.47,27.78,27.78,0,0,0-9.85,1.81C80.52,57.27,84.61,75.45,101.6,81.63Z"/><path class="cls-15" d="M128.58,60.44h0c1.75,6.74-1.6,13.38-8.82,16.28-15.08,6.1-34.28-7.39-28.95-20.32,4.49-10.9,23.41-10.95,28.1-.09a7.79,7.79,0,0,1,.43,3.59c-1,6.48-11.33,8.29-15.82,2.77a5.24,5.24,0,0,1-1.29-3.8,4.07,4.07,0,0,1,2.19-3,6,6,0,0,1,4.26-.6,5.26,5.26,0,0,1,1.48.65,6.52,6.52,0,0,1,.78.55c.11.09.76.54.74.68.06-2.95-4.74-5.43-9.16-3.78-6.5,2.46-6.12,11.37,2.54,15.23s20.91-1.34,17.11-12.1c0,0,0,0,0,0-3.73-8.71-17-12.75-26.87-8.13-14.78,6.95-10.94,26,6.55,32.32,16.84,6.15,35.13-5.13,28-21.8,0,0,0,0,0,0a24.4,24.4,0,0,0-8-8.82A21.75,21.75,0,0,1,128.58,60.44Zm.18-2.17Z"/><path class="cls-16" d="M206,105h0a4.76,4.76,0,0,1-2.06-.41,3,3,0,0,1-1.32-1.28,5,5,0,0,1-.52-2.16h0c0-.41,0-.81,0-1.18s0-.78,0-1.19h0a4.82,4.82,0,0,1,.54-2.14A3.11,3.11,0,0,1,204,95.39a4.38,4.38,0,0,1,2-.43h0a4.35,4.35,0,0,1,2,.43,3.11,3.11,0,0,1,1.35,1.29,4.57,4.57,0,0,1,.53,2.14h0c0,.41,0,.81,0,1.19s0,.77,0,1.18h0a4.85,4.85,0,0,1-.51,2.16,3,3,0,0,1-1.32,1.28A4.73,4.73,0,0,1,206,105Zm0-1.19h0a2.41,2.41,0,0,0,1.74-.64,2.93,2.93,0,0,0,.73-2.09h0c0-.42,0-.8,0-1.13s0-.7,0-1.11h0a3.35,3.35,0,0,0-.35-1.57,2.07,2.07,0,0,0-.88-.88,2.61,2.61,0,0,0-1.24-.28h0a2.68,2.68,0,0,0-1.25.28,2,2,0,0,0-.87.88,3.59,3.59,0,0,0-.38,1.57h0c0,.41,0,.78,0,1.11s0,.71,0,1.13h0a2.93,2.93,0,0,0,.75,2.09A2.44,2.44,0,0,0,206,103.85Zm9.79,1.05h-.7a.32.32,0,0,1-.23-.09.29.29,0,0,1-.1-.23h0V97.94a.29.29,0,0,1,.1-.23.32.32,0,0,1,.23-.09h.65a.32.32,0,0,1,.23.09.29.29,0,0,1,.1.23h0v.62a2.76,2.76,0,0,1,.91-.78,3,3,0,0,1,1.42-.3h0a2.84,2.84,0,0,1,1.55.4,2.53,2.53,0,0,1,1,1.1,3.86,3.86,0,0,1,.33,1.65h0v4a.32.32,0,0,1-.09.23.36.36,0,0,1-.24.09h-.7a.31.31,0,0,1-.32-.32h0V100.7a2.31,2.31,0,0,0-.47-1.53,1.76,1.76,0,0,0-1.4-.56h0a1.84,1.84,0,0,0-1.4.56,2.13,2.13,0,0,0-.52,1.53h0v3.88a.31.31,0,0,1-.32.32Zm13.37.14h0a3.07,3.07,0,0,1-2.31-.89,3.67,3.67,0,0,1-.94-2.43h0c0-.12,0-.28,0-.47s0-.34,0-.47h0a4.14,4.14,0,0,1,.46-1.74,2.88,2.88,0,0,1,1.12-1.15,3.27,3.27,0,0,1,1.66-.41h0a3.29,3.29,0,0,1,1.78.45A2.85,2.85,0,0,1,232,99.2a4.65,4.65,0,0,1,.38,1.93h0v.24a.3.3,0,0,1-.09.24.36.36,0,0,1-.23.08h-4.85v.13h0a2.94,2.94,0,0,0,.25,1.07,2.07,2.07,0,0,0,.65.81,1.72,1.72,0,0,0,1,.3h0a2.1,2.1,0,0,0,.84-.15,2,2,0,0,0,.54-.34,2.18,2.18,0,0,0,.28-.3h0a1,1,0,0,1,.2-.21.61.61,0,0,1,.22,0h.69a.31.31,0,0,1,.21.07.22.22,0,0,1,.08.22h0a1.07,1.07,0,0,1-.22.51,2.83,2.83,0,0,1-.6.6,3.37,3.37,0,0,1-1,.48A4,4,0,0,1,229.17,105Zm-1.92-4.35v0h3.84v0a2.67,2.67,0,0,0-.23-1.12,1.81,1.81,0,0,0-1.7-1.07h0a1.76,1.76,0,0,0-1.68,1.07,2.67,2.67,0,0,0-.23,1.12Zm18.8,4.35h0a4.09,4.09,0,0,1-1.35-.2,3,3,0,0,1-.91-.47,2.22,2.22,0,0,1-.52-.56,1.11,1.11,0,0,1-.19-.45h0a.27.27,0,0,1,.1-.24.4.4,0,0,1,.22-.08H244l.12,0a.33.33,0,0,1,.13.12h0c.13.13.26.26.41.39a1.73,1.73,0,0,0,.55.32,2.17,2.17,0,0,0,.82.13h0a2.32,2.32,0,0,0,1.18-.27.9.9,0,0,0,.46-.81h0a.79.79,0,0,0-.19-.56,1.64,1.64,0,0,0-.67-.38,11.8,11.8,0,0,0-1.32-.35h0a4.93,4.93,0,0,1-1.33-.48,1.72,1.72,0,0,1-.7-.69,1.93,1.93,0,0,1-.21-.9h0a1.85,1.85,0,0,1,.3-1,2.37,2.37,0,0,1,.91-.79,3.14,3.14,0,0,1,1.49-.31h0a3.73,3.73,0,0,1,1.24.18,2.69,2.69,0,0,1,.86.46,2.24,2.24,0,0,1,.5.54,1,1,0,0,1,.18.44h0a.25.25,0,0,1-.08.23.3.3,0,0,1-.22.1h-.59a.25.25,0,0,1-.16-.05l-.12-.09h0a2.25,2.25,0,0,0-.33-.37,1.57,1.57,0,0,0-.49-.3,2.15,2.15,0,0,0-.79-.12h0a1.57,1.57,0,0,0-1,.3.92.92,0,0,0-.35.74h0a.8.8,0,0,0,.15.47,1.33,1.33,0,0,0,.59.38,10.12,10.12,0,0,0,1.29.37h0a4.61,4.61,0,0,1,1.45.49,1.88,1.88,0,0,1,.76.71,1.92,1.92,0,0,1,.22.94h0a1.91,1.91,0,0,1-.33,1.08,2.24,2.24,0,0,1-1,.77A4.24,4.24,0,0,1,246.05,105Zm11.43-.14h-1a2.41,2.41,0,0,1-1.27-.3,1.72,1.72,0,0,1-.72-.85,3.49,3.49,0,0,1-.22-1.31h0v-3.7h-1.09a.32.32,0,0,1-.23-.09.29.29,0,0,1-.1-.23h0v-.48a.29.29,0,0,1,.1-.23.32.32,0,0,1,.23-.09h1.09V95.28a.31.31,0,0,1,.32-.32h.66a.31.31,0,0,1,.32.32h0v2.34h1.74a.29.29,0,0,1,.23.09.32.32,0,0,1,.09.23h0v.48a.32.32,0,0,1-.09.23.29.29,0,0,1-.23.09H255.6v3.6a2,2,0,0,0,.22,1,.86.86,0,0,0,.8.38h.86a.31.31,0,0,1,.32.32h0v.51a.31.31,0,0,1-.32.32Zm7.57.14h0a3.07,3.07,0,0,1-2.31-.89,3.62,3.62,0,0,1-.93-2.43h0c0-.12,0-.28,0-.47s0-.34,0-.47h0a4,4,0,0,1,.46-1.74,2.86,2.86,0,0,1,1.11-1.15,3.29,3.29,0,0,1,1.66-.41h0a3.29,3.29,0,0,1,1.78.45,2.79,2.79,0,0,1,1.1,1.27,4.65,4.65,0,0,1,.38,1.93h0v.24a.3.3,0,0,1-.09.24.36.36,0,0,1-.23.08h-4.84v.13h0a2.75,2.75,0,0,0,.25,1.07,2,2,0,0,0,.65.81,1.71,1.71,0,0,0,1,.3h0a2.1,2.1,0,0,0,.84-.15,1.92,1.92,0,0,0,.55-.34,2.18,2.18,0,0,0,.28-.3h0a.82.82,0,0,1,.19-.21.63.63,0,0,1,.23,0h.68a.32.32,0,0,1,.22.07.24.24,0,0,1,.08.22h0a1.11,1.11,0,0,1-.23.51,3,3,0,0,1-.59.6,3.67,3.67,0,0,1-1,.48A4,4,0,0,1,265.05,105Zm-1.91-4.35v0H267v0a2.67,2.67,0,0,0-.23-1.12,1.8,1.8,0,0,0-.66-.78,1.87,1.87,0,0,0-1-.29h0a1.83,1.83,0,0,0-1,.29,1.78,1.78,0,0,0-.65.78,2.67,2.67,0,0,0-.22,1.12ZM274,107.56h-.68a.31.31,0,0,1-.32-.32h0v-9.3a.31.31,0,0,1,.32-.32H274a.31.31,0,0,1,.32.32h0v.62a2.7,2.7,0,0,1,2.3-1.08h0a3,3,0,0,1,1.34.27,2.39,2.39,0,0,1,.91.72,3.72,3.72,0,0,1,.54,1,5,5,0,0,1,.21,1.26h0c0,.15,0,.31,0,.48s0,.33,0,.48h0a5.19,5.19,0,0,1-.21,1.25,3.72,3.72,0,0,1-.54,1.05,2.74,2.74,0,0,1-.91.73,3,3,0,0,1-1.34.27h0a2.75,2.75,0,0,1-2.27-1.05h0v3.25a.36.36,0,0,1-.08.23.32.32,0,0,1-.23.09Zm2.29-3.65h0a1.86,1.86,0,0,0,1.14-.32,1.76,1.76,0,0,0,.59-.82,4,4,0,0,0,.21-1.1h0c0-.27,0-.55,0-.82h0a4,4,0,0,0-.21-1.1,1.76,1.76,0,0,0-.59-.82,1.86,1.86,0,0,0-1.14-.32h0a1.8,1.8,0,0,0-1.12.33,1.94,1.94,0,0,0-.63.81,3.28,3.28,0,0,0-.23,1h0c0,.15,0,.32,0,.53s0,.39,0,.55h0a2.5,2.5,0,0,0,.23,1,2,2,0,0,0,.65.79A1.83,1.83,0,0,0,276.29,103.91Zm17,1.13h0a4.09,4.09,0,0,1-1.35-.2,3,3,0,0,1-.91-.47,2.22,2.22,0,0,1-.52-.56,1.11,1.11,0,0,1-.19-.45h0a.25.25,0,0,1,.1-.24.4.4,0,0,1,.22-.08h.63l.12,0a.33.33,0,0,1,.13.12h0a5.16,5.16,0,0,0,.41.39,1.73,1.73,0,0,0,.55.32,2.17,2.17,0,0,0,.82.13h0a2.34,2.34,0,0,0,1.18-.27.9.9,0,0,0,.46-.81h0a.79.79,0,0,0-.19-.56,1.64,1.64,0,0,0-.67-.38,12.72,12.72,0,0,0-1.33-.35h0a4.93,4.93,0,0,1-1.33-.48,1.72,1.72,0,0,1-.7-.69,1.93,1.93,0,0,1-.21-.9h0a1.78,1.78,0,0,1,.31-1,2.37,2.37,0,0,1,.91-.79,3.14,3.14,0,0,1,1.49-.31h0a3.82,3.82,0,0,1,1.24.18,2.69,2.69,0,0,1,.86.46,2.24,2.24,0,0,1,.5.54,1,1,0,0,1,.18.44h0a.25.25,0,0,1-.08.23.3.3,0,0,1-.23.1h-.58a.25.25,0,0,1-.16-.05l-.12-.09h0a2.25,2.25,0,0,0-.33-.37,1.57,1.57,0,0,0-.49-.3,2.15,2.15,0,0,0-.79-.12h0a1.57,1.57,0,0,0-1,.3.92.92,0,0,0-.35.74h0a.8.8,0,0,0,.15.47,1.28,1.28,0,0,0,.59.38,10.12,10.12,0,0,0,1.29.37h0a4.61,4.61,0,0,1,1.45.49,2,2,0,0,1,.76.71,1.92,1.92,0,0,1,.22.94h0a1.91,1.91,0,0,1-.33,1.08,2.24,2.24,0,0,1-1,.77A4.24,4.24,0,0,1,293.28,105Zm10.6,0h0a3.55,3.55,0,0,1-1.78-.41,2.73,2.73,0,0,1-1.09-1.12,3.94,3.94,0,0,1-.42-1.65h0c0-.16,0-.36,0-.61s0-.44,0-.59h0A3.73,3.73,0,0,1,301,99a2.73,2.73,0,0,1,1.09-1.12,3.56,3.56,0,0,1,1.77-.41h0a3.5,3.5,0,0,1,1.76.41,2.7,2.7,0,0,1,1.1,1.12,3.73,3.73,0,0,1,.43,1.65h0c0,.15,0,.34,0,.59s0,.45,0,.61h0a3.94,3.94,0,0,1-.42,1.65,2.73,2.73,0,0,1-1.09,1.12A3.58,3.58,0,0,1,303.88,105Zm0-1.08h0a1.78,1.78,0,0,0,1.38-.55,2.43,2.43,0,0,0,.56-1.62h0c0-.14,0-.32,0-.53s0-.39,0-.53h0a2.43,2.43,0,0,0-.56-1.62,1.78,1.78,0,0,0-1.38-.55h0a1.82,1.82,0,0,0-1.39.55,2.38,2.38,0,0,0-.56,1.62h0c0,.14,0,.32,0,.53s0,.39,0,.53h0a2.38,2.38,0,0,0,.56,1.62A1.82,1.82,0,0,0,303.88,104Zm9.05.94h-.66a.31.31,0,0,1-.32-.32h0v-9.3a.31.31,0,0,1,.32-.32h.66a.29.29,0,0,1,.23.09.32.32,0,0,1,.09.23h0v9.3a.32.32,0,0,1-.09.23.29.29,0,0,1-.23.09Zm8.12.14h0a2.71,2.71,0,0,1-1.52-.4,2.55,2.55,0,0,1-.94-1.11,3.91,3.91,0,0,1-.33-1.64h0v-4a.29.29,0,0,1,.1-.23.32.32,0,0,1,.23-.09h.7a.31.31,0,0,1,.32.32h0v3.88c0,1.39.61,2.09,1.82,2.09h0a1.82,1.82,0,0,0,1.39-.56,2.14,2.14,0,0,0,.53-1.53h0V97.94a.31.31,0,0,1,.32-.32h.7a.28.28,0,0,1,.22.09.32.32,0,0,1,.09.23h0v6.64a.32.32,0,0,1-.09.23.28.28,0,0,1-.22.09h-.66a.31.31,0,0,1-.32-.32h0V104a2.91,2.91,0,0,1-.92.79A3,3,0,0,1,321.05,105Zm12.52-.14h-1a2.41,2.41,0,0,1-1.27-.3,1.7,1.7,0,0,1-.71-.85,3.48,3.48,0,0,1-.23-1.31h0v-3.7H329.3a.31.31,0,0,1-.32-.32h0v-.48a.31.31,0,0,1,.32-.32h1.09V95.28a.31.31,0,0,1,.32-.32h.66a.31.31,0,0,1,.32.32h0v2.34h1.74a.32.32,0,0,1,.24.09.36.36,0,0,1,.08.23h0v.48a.36.36,0,0,1-.08.23.32.32,0,0,1-.24.09h-1.74v3.6a2,2,0,0,0,.23,1,.85.85,0,0,0,.8.38h.85a.31.31,0,0,1,.32.32h0v.51a.31.31,0,0,1-.32.32Zm5.66,0h-.67a.31.31,0,0,1-.32-.32h0V97.94a.31.31,0,0,1,.32-.32h.67a.31.31,0,0,1,.32.32h0v6.64a.31.31,0,0,1-.32.32Zm.1-8.64h-.88a.36.36,0,0,1-.24-.09.32.32,0,0,1-.09-.23h0v-.76a.32.32,0,0,1,.09-.23.33.33,0,0,1,.24-.1h.88a.33.33,0,0,1,.24.1.32.32,0,0,1,.09.23h0v.76a.32.32,0,0,1-.09.23.36.36,0,0,1-.24.09Zm8.28,8.78h0a3.55,3.55,0,0,1-1.78-.41,2.67,2.67,0,0,1-1.09-1.12,3.94,3.94,0,0,1-.42-1.65h0c0-.16,0-.36,0-.61s0-.44,0-.59h0a3.86,3.86,0,0,1,.42-1.65,2.82,2.82,0,0,1,1.1-1.12,3.56,3.56,0,0,1,1.77-.41h0a3.5,3.5,0,0,1,1.76.41,2.82,2.82,0,0,1,1.1,1.12,3.87,3.87,0,0,1,.43,1.65h0c0,.15,0,.34,0,.59s0,.45,0,.61h0a3.94,3.94,0,0,1-.42,1.65,2.7,2.7,0,0,1-1.1,1.12A3.51,3.51,0,0,1,347.61,105Zm0-1.08h0a1.81,1.81,0,0,0,1.38-.55,2.43,2.43,0,0,0,.56-1.62h0c0-.14,0-.32,0-.53s0-.39,0-.53h0a2.43,2.43,0,0,0-.56-1.62,1.81,1.81,0,0,0-1.38-.55h0a1.84,1.84,0,0,0-1.4.55,2.37,2.37,0,0,0-.55,1.62h0c0,.14,0,.32,0,.53s0,.39,0,.53h0a2.37,2.37,0,0,0,.55,1.62A1.84,1.84,0,0,0,347.61,104Zm9.07.94H356a.31.31,0,0,1-.32-.32h0V97.94a.31.31,0,0,1,.32-.32h.66a.31.31,0,0,1,.32.32h0v.62a2.9,2.9,0,0,1,.92-.78,3,3,0,0,1,1.42-.3h0a2.84,2.84,0,0,1,1.55.4,2.57,2.57,0,0,1,1,1.1,3.86,3.86,0,0,1,.33,1.65h0v4a.31.31,0,0,1-.32.32h-.7a.31.31,0,0,1-.32-.32h0V100.7a2.26,2.26,0,0,0-.48-1.53,1.73,1.73,0,0,0-1.4-.56h0a1.82,1.82,0,0,0-1.39.56,2.14,2.14,0,0,0-.53,1.53h0v3.88a.31.31,0,0,1-.32.32Z"/><path class="cls-17" d="M191.36,79.85h-1.77a.64.64,0,0,1-.44-.18.55.55,0,0,1-.19-.42h0a.54.54,0,0,1,0-.22l.07-.17h0L196,69.17l-6.54-9.33a.86.86,0,0,1-.09-.39h0a.62.62,0,0,1,.6-.6h1.8a.78.78,0,0,1,.48.14,1.34,1.34,0,0,1,.33.37h0l5.28,7.5,5.25-7.5a1,1,0,0,1,.31-.37.82.82,0,0,1,.47-.14h1.71a.62.62,0,0,1,.6.6h0a.69.69,0,0,1-.12.39h0l-6.45,9.36,6.84,9.66a.39.39,0,0,1,.09.17.78.78,0,0,1,0,.22h0a.58.58,0,0,1-.18.42.61.61,0,0,1-.45.18h-1.83a.73.73,0,0,1-.46-.15,1.71,1.71,0,0,1-.35-.36h0l-5.58-7.77-5.55,7.77a1.91,1.91,0,0,1-.33.36.68.68,0,0,1-.45.15Zm29.32,0h-1.56a.65.65,0,0,1-.69-.69h0V61.52h-5.76a.65.65,0,0,1-.69-.69h0V59.57a.69.69,0,0,1,.19-.52.69.69,0,0,1,.5-.2h14.46a.69.69,0,0,1,.72.72h0v1.26a.69.69,0,0,1-.2.5.69.69,0,0,1-.52.19H221.4V79.16a.69.69,0,0,1-.2.5.69.69,0,0,1-.52.19Zm16.75,0H235.9a.66.66,0,0,1-.51-.19.71.71,0,0,1-.18-.5h0V59.57a.73.73,0,0,1,.18-.52.66.66,0,0,1,.51-.2h7.32a8.34,8.34,0,0,1,5.37,1.59,5.68,5.68,0,0,1,2,4.71h0a5.89,5.89,0,0,1-1.16,3.77,6,6,0,0,1-3.13,2h0l4.62,8a.75.75,0,0,1,.09.33h0a.56.56,0,0,1-.2.42.61.61,0,0,1-.43.18h-1.44a1,1,0,0,1-.75-.27,4.94,4.94,0,0,1-.42-.54h0l-4.35-7.62h-5.25v7.74a.69.69,0,0,1-.2.5.69.69,0,0,1-.52.19Zm.72-18.48v7.5h4.95a5.08,5.08,0,0,0,3.36-.94,3.49,3.49,0,0,0,1.11-2.81h0a3.51,3.51,0,0,0-1.1-2.79,5,5,0,0,0-3.37-1h-4.95Zm34,18.48H259.55a.66.66,0,0,1-.51-.19.71.71,0,0,1-.18-.5h0V59.57a.73.73,0,0,1,.18-.52.66.66,0,0,1,.51-.2h12.39a.66.66,0,0,1,.51.2.73.73,0,0,1,.18.52h0v1.14a.63.63,0,0,1-.69.69h-10.2V68h9.54a.66.66,0,0,1,.51.2.73.73,0,0,1,.18.52h0V69.8a.71.71,0,0,1-.18.5.66.66,0,0,1-.51.19h-9.54V77.3h10.44a.63.63,0,0,1,.69.69h0v1.17a.71.71,0,0,1-.18.5.66.66,0,0,1-.51.19Zm9,0h-1.53a.62.62,0,0,1-.6-.6h0a2,2,0,0,1,0-.33h0l7.44-19.41a1.21,1.21,0,0,1,.33-.48,1,1,0,0,1,.63-.18h2a1,1,0,0,1,.63.18,1.21,1.21,0,0,1,.33.48h0l7.41,19.41a1.05,1.05,0,0,1,.06.33h0a.62.62,0,0,1-.6.6H295.8a.69.69,0,0,1-.53-.18,1.11,1.11,0,0,1-.22-.33h0l-1.65-4.26h-9.84l-1.65,4.26a.69.69,0,0,1-.21.33.73.73,0,0,1-.54.18Zm7.32-18L284.43,72.5h8.1Zm18.82,18h-1.47a.65.65,0,0,1-.69-.69h0V59.57a.69.69,0,0,1,.19-.52.69.69,0,0,1,.5-.2h1.5a.73.73,0,0,1,.54.18,1.29,1.29,0,0,1,.24.3h0l6.33,12.12,6.39-12.12a1.38,1.38,0,0,1,.22-.3.69.69,0,0,1,.53-.18h1.47a.69.69,0,0,1,.72.72h0V79.16a.69.69,0,0,1-.2.5.69.69,0,0,1-.52.19h-1.47a.65.65,0,0,1-.69-.69h0V64.4l-5,9.78a1,1,0,0,1-.36.46,1,1,0,0,1-.6.17H314a1,1,0,0,1-.6-.17,1.32,1.32,0,0,1-.36-.46h0l-5-9.78V79.16a.69.69,0,0,1-.2.5.66.66,0,0,1-.49.19Zm44.66,0h-7a.66.66,0,0,1-.51-.19.71.71,0,0,1-.18-.5h0V59.57a.73.73,0,0,1,.18-.52.66.66,0,0,1,.51-.2h6.81a11.34,11.34,0,0,1,5,.93,5.8,5.8,0,0,1,2.76,2.75,10.52,10.52,0,0,1,.9,4.45h0q0,1.35,0,2.37t0,2.34h0a11.3,11.3,0,0,1-.92,4.57,5.54,5.54,0,0,1-2.7,2.7,11.33,11.33,0,0,1-4.87.89ZM347.25,61.4V77.3h4.56a8,8,0,0,0,3.3-.57,3.5,3.5,0,0,0,1.78-1.83,8.68,8.68,0,0,0,.59-3.33h0c0-.6.06-1.12.06-1.57V68.64c0-.45,0-1-.06-1.54h0a6.26,6.26,0,0,0-1.38-4.3c-.88-.93-2.36-1.4-4.44-1.4h-4.41ZM371.2,79.85h-1.53a.66.66,0,0,1-.51-.19.71.71,0,0,1-.18-.5h0V59.57a.73.73,0,0,1,.18-.52.66.66,0,0,1,.51-.2H377a8.34,8.34,0,0,1,5.37,1.59,5.68,5.68,0,0,1,2,4.71h0a5.89,5.89,0,0,1-1.16,3.77,6,6,0,0,1-3.13,2h0l4.62,8a.75.75,0,0,1,.09.33h0a.56.56,0,0,1-.2.42.61.61,0,0,1-.43.18h-1.44a1,1,0,0,1-.75-.27,4.94,4.94,0,0,1-.42-.54h0l-4.35-7.62h-5.25v7.74a.69.69,0,0,1-.2.5.69.69,0,0,1-.52.19Zm.72-18.48v7.5h4.95a5.08,5.08,0,0,0,3.36-.94,3.49,3.49,0,0,0,1.11-2.81h0a3.51,3.51,0,0,0-1.1-2.79,5,5,0,0,0-3.37-1h-4.95Zm23,18.48h-1.59a.66.66,0,0,1-.51-.19.71.71,0,0,1-.18-.5h0V59.54a.69.69,0,0,1,.18-.49.66.66,0,0,1,.51-.2h1.59a.66.66,0,0,1,.51.2.69.69,0,0,1,.18.49h0V79.16a.71.71,0,0,1-.18.5.66.66,0,0,1-.51.19Zm18.1,0h-1.95a1.09,1.09,0,0,1-.71-.21,1.43,1.43,0,0,1-.4-.57h0l-6.69-19.29a1.05,1.05,0,0,1-.06-.33h0a.62.62,0,0,1,.6-.6h1.56a.74.74,0,0,1,.55.2,1.14,1.14,0,0,1,.26.34h0l5.85,17,5.88-17a1.19,1.19,0,0,1,.24-.34.7.7,0,0,1,.54-.2h1.56a.61.61,0,0,1,.43.18.56.56,0,0,1,.2.42h0a1.05,1.05,0,0,1-.06.33h0l-6.72,19.29a1.22,1.22,0,0,1-.38.57,1.06,1.06,0,0,1-.7.21Zm28.78,0H429.16a.66.66,0,0,1-.51-.19.71.71,0,0,1-.18-.5h0V59.57a.73.73,0,0,1,.18-.52.66.66,0,0,1,.51-.2h12.39a.66.66,0,0,1,.51.2.73.73,0,0,1,.18.52h0v1.14a.63.63,0,0,1-.69.69h-10.2V68h9.54a.66.66,0,0,1,.51.2.73.73,0,0,1,.18.52h0V69.8a.71.71,0,0,1-.18.5.66.66,0,0,1-.51.19h-9.54V77.3h10.44a.63.63,0,0,1,.69.69h0v1.17a.71.71,0,0,1-.18.5.66.66,0,0,1-.51.19Z"/></g></g></svg>