<svg xmlns="http://www.w3.org/2000/svg" xmlns:xlink="http://www.w3.org/1999/xlink" viewBox="0 0 189 138.7"><defs><style>.cls-1{fill:url(#linear-gradient);}.cls-2{fill:#0c0528;}.cls-3{fill:url(#linear-gradient-2);}.cls-4{fill:url(#linear-gradient-3);}.cls-5{fill:url(#linear-gradient-4);}.cls-6{fill:url(#linear-gradient-5);}.cls-7{fill:url(#linear-gradient-6);}.cls-8{fill:url(#linear-gradient-7);}.cls-9{fill:url(#linear-gradient-8);}.cls-10{fill:url(#linear-gradient-9);}.cls-11{fill:url(#linear-gradient-10);}.cls-12{fill:url(#linear-gradient-11);}.cls-13{fill:url(#linear-gradient-12);}.cls-14{fill:#5076ff;}.cls-15{fill:url(#linear-gradient-13);}</style><linearGradient id="linear-gradient" x1="286.93" y1="-514.24" x2="355.7" y2="-349.19" gradientTransform="matrix(0.22, 0, 0, -0.22, 34, -26.11)" gradientUnits="userSpaceOnUse"><stop offset="0.01" stop-color="#20e8fe"/><stop offset="1" stop-color="#b5f5fe"/></linearGradient><linearGradient id="linear-gradient-2" x1="290.97" y1="-548.31" x2="331.69" y2="-392.16" gradientTransform="matrix(0.22, 0, 0, -0.22, 34, -26.11)" gradientUnits="userSpaceOnUse"><stop offset="0" stop-color="#244afa"/><stop offset="1" stop-color="#8c50ff"/></linearGradient><linearGradient id="linear-gradient-3" x1="285.35" y1="-546.84" x2="326.06" y2="-390.7" xlink:href="#linear-gradient-2"/><linearGradient id="linear-gradient-4" x1="164.95" y1="-192.11" x2="67.53" y2="-245.97" gradientTransform="matrix(0.22, 0, 0, -0.22, 34, -26.11)" gradientUnits="userSpaceOnUse"><stop offset="0" stop-color="#0c0528"/><stop offset="1" stop-color="#703fef"/></linearGradient><linearGradient id="linear-gradient-5" x1="418.11" y1="-655.67" x2="549.92" y2="-591.48" xlink:href="#linear-gradient-4"/><linearGradient id="linear-gradient-6" x1="22.37" y1="-459.48" x2="278.57" y2="-459.48" gradientTransform="matrix(0.22, 0, 0, -0.22, 34, -26.11)" gradientUnits="userSpaceOnUse"><stop offset="0" stop-color="#7e4afa"/><stop offset="1" stop-color="#8c50ff"/></linearGradient><linearGradient id="linear-gradient-7" x1="319.87" y1="-351.38" x2="578.87" y2="-351.38" xlink:href="#linear-gradient-6"/><linearGradient id="linear-gradient-8" x1="64.52" y1="-208.04" x2="269.91" y2="-208.04" gradientTransform="matrix(0.22, 0.01, 0.01, -0.22, 76.43, -3.09)" gradientUnits="userSpaceOnUse"><stop offset="0" stop-color="#c59ffa"/><stop offset="1" stop-color="#8c50ff"/></linearGradient><linearGradient id="linear-gradient-9" x1="2202" y1="-3652.29" x2="2367.1" y2="-3652.29" gradientTransform="matrix(0.17, -0.15, -0.15, -0.17, -820.38, -197.16)" xlink:href="#linear-gradient-8"/><linearGradient id="linear-gradient-10" x1="420.13" y1="-136.83" x2="635.61" y2="-234.26" xlink:href="#linear-gradient-4"/><linearGradient id="linear-gradient-11" x1="376.05" y1="-315.92" x2="291.54" y2="-502.29" xlink:href="#linear-gradient-2"/><linearGradient id="linear-gradient-12" x1="-152.23" y1="-452.13" x2="693.97" y2="-452.13" gradientTransform="matrix(0.22, 0, 0, -0.22, 34, -26.11)" xlink:href="#linear-gradient-8"/><linearGradient id="linear-gradient-13" x1="374.63" y1="-315.28" x2="290.12" y2="-501.65" gradientTransform="matrix(0.22, 0, 0, -0.22, 34, -26.11)" xlink:href="#linear-gradient-8"/></defs><title>Xtream Drive</title><g id="Layer_2" data-name="Layer 2"><g id="Layer_1-2" data-name="Layer 1"><circle class="cls-1" cx="103.99" cy="74.58" r="27.54"/><path class="cls-2" d="M135.73,82.28c.05-.4.09-.78.11-1.18C135.8,81.55,135.75,81.92,135.73,82.28Z"/><path class="cls-3" d="M110,101.07c-26.38.4-48-26.27-29.31-45.5a33.11,33.11,0,0,0-3.55,3.93c-.47.63-1.05,1.5-1.49,2.12a23,23,0,0,0-.72,23.16c11.3,22.09,52.11,27.88,60,2.62l.09-.34a28.42,28.42,0,0,0,.76-4.78C134.37,93,123.78,100.84,110,101.07Z"/><path class="cls-4" d="M126,102.47c-18.74,15.48-57.2,1-55.33-26.82L70.44,78a31.85,31.85,0,0,0,.21,5.18c3.79,23.52,35.78,35.65,54.29,20.6l.32-.29a33.14,33.14,0,0,0,3.93-4.31l.24-.34A20.65,20.65,0,0,1,126,102.47Z"/><path class="cls-5" d="M41.23,11c7.71-7.73,23.85-5.38,43,4.56C61.4.92,41.74-4.33,33.52,3.89,24.41,13,31.87,36.23,50.39,62.18,36.7,39.55,32.43,19.81,41.23,11Z"/><path class="cls-6" d="M157.51,127.67c-7.71,7.7-23.86,5.38-43-4.56,22.81,14.67,42.49,19.92,50.68,11.7,9.12-9.11,1.66-32.34-16.86-58.29C162,99.15,166.31,118.89,157.51,127.67Z"/><path class="cls-7" d="M44.27,76.45A53.81,53.81,0,0,1,94.7,22.74c-.62,0-1.25,0-1.88,0a53.83,53.83,0,0,0,0,107.66c1.14,0,2.28,0,3.4-.11A53.82,53.82,0,0,1,44.27,76.45Z"/><path class="cls-8" d="M160.9,78.75a58.82,58.82,0,0,1-.33,6.26A49.15,49.15,0,0,0,114.2,19.74a48.63,48.63,0,0,0-8.76.79A58.29,58.29,0,0,1,160.9,78.75Z"/><path class="cls-9" d="M134.37,54.23a28.47,28.47,0,0,0-2.06-3.73,30.86,30.86,0,0,0-42.66-9.31c-.22.13-.44.29-.67.44A36.33,36.33,0,0,1,134.37,54.23Z"/><path class="cls-10" d="M98.92,95.64C77.08,80.25,65.06,59.72,72.05,49.78c2.35-3.32,6.55-5,11.93-5.27-8.8-1-15.88.85-19.41,5.83C56.87,61.26,69,83.09,91.73,99.1c21.78,15.37,45.36,19.79,54,10.45C135.62,113.48,116.75,108.21,98.92,95.64Z"/><path class="cls-11" d="M176.85,21.89a15.79,15.79,0,0,1,1.83,7.66c2.59-5.61,3.06-10.54,1-14.36C173.88,4.58,150,5.78,121.28,16.66,148.51,8.84,170.46,10.16,176.85,21.89Z"/><path class="cls-12" d="M135.35,67.05c-.54-1.36-1.34-3.15-2-4.47-.12-.22-.25-.42-.38-.62,5.33,10.2,1.31,21.17-9.56,26.06-21.53,9.67-49.7-9.4-43.07-29.17a19.6,19.6,0,0,1,1.43-3.26h0s2.37-5.94,11.77-10l0,0c-22.49,6.81-22.63,33-.22,44.52C114.42,101,142.19,89.41,135.35,67.05Z"/><path class="cls-13" d="M116.54,87c-49.13,25.93-95.81,34-104.23,18-4.85-9.18,4-24.37,21.86-40.54C9.11,84.31-4.49,103.84,1.34,114.87,10.05,131.4,59,122.71,110.6,95.46,153.17,73,184.29,44.94,189,26.51,180.67,44,153.06,67.67,116.54,87Z"/><path class="cls-14" d="M101.6,81.63c13,4.72,26.78-.87,29.22-11.27a27.16,27.16,0,0,0-2-6.3c.36,5.78-3,11.1-9.24,13.62-15.08,6.1-34.29-7.39-28.95-20.32,4.49-10.9,23.41-11,28.1-.09a7.68,7.68,0,0,1,.42,3.59c-1,6.48-11.32,8.29-15.81,2.77a5.28,5.28,0,0,1-1.3-3.79,4.14,4.14,0,0,1,2.19-3,6.69,6.69,0,0,1,2.62-.89,7.4,7.4,0,0,1,2.72.29c.4.11.76.29,1.14.42a3.64,3.64,0,0,1,1,.5c.11.08,0-.16,0,0,.06-2.95-5-4.47-9.38-2.82-6.5,2.46-6.12,11.37,2.54,15.23S125.77,68.21,122,57.45c0,0,0,0,0,0a14.86,14.86,0,0,0-4.78-5.89,27.36,27.36,0,0,0-13.38-3.47,27.78,27.78,0,0,0-9.85,1.81C80.52,57.27,84.61,75.45,101.6,81.63Z"/><path class="cls-15" d="M128.58,60.44h0c1.75,6.74-1.6,13.38-8.82,16.28-15.08,6.1-34.28-7.39-28.95-20.32,4.49-10.9,23.41-10.95,28.1-.09a7.79,7.79,0,0,1,.43,3.59c-1,6.48-11.33,8.29-15.82,2.77a5.24,5.24,0,0,1-1.29-3.8,4.07,4.07,0,0,1,2.19-3,6,6,0,0,1,4.26-.6,5.26,5.26,0,0,1,1.48.65,6.52,6.52,0,0,1,.78.55c.11.09.76.54.74.68.06-2.95-4.74-5.43-9.16-3.78-6.5,2.46-6.12,11.37,2.54,15.23s20.91-1.34,17.11-12.1c0,0,0,0,0,0-3.73-8.71-17-12.75-26.87-8.13-14.78,6.95-10.94,26,6.55,32.32,16.84,6.15,35.13-5.13,28-21.8,0,0,0,0,0,0a24.4,24.4,0,0,0-8-8.82A21.75,21.75,0,0,1,128.58,60.44Zm.18-2.17Z"/></g></g></svg>