<svg xmlns="http://www.w3.org/2000/svg" xmlns:xlink="http://www.w3.org/1999/xlink" viewBox="0 0 281.73 225.7"><defs><style>.cls-1{fill:url(#linear-gradient);}.cls-2{fill:#0c0528;}.cls-3{fill:url(#linear-gradient-2);}.cls-4{fill:url(#linear-gradient-3);}.cls-5{fill:url(#linear-gradient-4);}.cls-6{fill:url(#linear-gradient-5);}.cls-7{fill:url(#linear-gradient-6);}.cls-8{fill:url(#linear-gradient-7);}.cls-9{fill:url(#linear-gradient-8);}.cls-10{fill:url(#linear-gradient-9);}.cls-11{fill:url(#linear-gradient-10);}.cls-12{fill:url(#linear-gradient-11);}.cls-13{fill:url(#linear-gradient-12);}.cls-14{fill:#5076ff;}.cls-15{fill:url(#linear-gradient-13);}.cls-16,.cls-17{fill:#fff;stroke-miterlimit:10;}.cls-16{stroke:#0e0ea5;}.cls-17{stroke:#1515bc;}</style><linearGradient id="linear-gradient" x1="327.28" y1="-458.6" x2="396.05" y2="-293.56" gradientTransform="matrix(0.22, 0, 0, -0.22, 65.34, 41.96)" gradientUnits="userSpaceOnUse"><stop offset="0.01" stop-color="#20e8fe"/><stop offset="1" stop-color="#b5f5fe"/></linearGradient><linearGradient id="linear-gradient-2" x1="331.32" y1="-492.67" x2="372.04" y2="-336.53" gradientTransform="matrix(0.22, 0, 0, -0.22, 65.34, 41.96)" gradientUnits="userSpaceOnUse"><stop offset="0" stop-color="#244afa"/><stop offset="1" stop-color="#8c50ff"/></linearGradient><linearGradient id="linear-gradient-3" x1="325.7" y1="-491.21" x2="366.41" y2="-335.06" xlink:href="#linear-gradient-2"/><linearGradient id="linear-gradient-4" x1="205.3" y1="-136.47" x2="107.88" y2="-190.34" gradientTransform="matrix(0.22, 0, 0, -0.22, 65.34, 41.96)" gradientUnits="userSpaceOnUse"><stop offset="0" stop-color="#0c0528"/><stop offset="1" stop-color="#703fef"/></linearGradient><linearGradient id="linear-gradient-5" x1="458.46" y1="-600.03" x2="590.27" y2="-535.85" xlink:href="#linear-gradient-4"/><linearGradient id="linear-gradient-6" x1="62.72" y1="-403.84" x2="318.92" y2="-403.84" gradientTransform="matrix(0.22, 0, 0, -0.22, 65.34, 41.96)" gradientUnits="userSpaceOnUse"><stop offset="0" stop-color="#7e4afa"/><stop offset="1" stop-color="#8c50ff"/></linearGradient><linearGradient id="linear-gradient-7" x1="360.22" y1="-295.74" x2="619.22" y2="-295.74" xlink:href="#linear-gradient-6"/><linearGradient id="linear-gradient-8" x1="104.87" y1="-152.4" x2="310.26" y2="-152.4" gradientTransform="matrix(0.22, 0.01, 0.01, -0.22, 107.26, 64.58)" gradientUnits="userSpaceOnUse"><stop offset="0" stop-color="#c59ffa"/><stop offset="1" stop-color="#8c50ff"/></linearGradient><linearGradient id="linear-gradient-9" x1="2242.35" y1="-3596.66" x2="2407.45" y2="-3596.66" gradientTransform="matrix(0.17, -0.15, -0.15, -0.17, -778.7, -126.23)" xlink:href="#linear-gradient-8"/><linearGradient id="linear-gradient-10" x1="460.48" y1="-81.2" x2="675.96" y2="-178.62" xlink:href="#linear-gradient-4"/><linearGradient id="linear-gradient-11" x1="416.4" y1="-260.28" x2="331.89" y2="-446.65" xlink:href="#linear-gradient-2"/><linearGradient id="linear-gradient-12" x1="-111.88" y1="-396.49" x2="734.32" y2="-396.49" gradientTransform="matrix(0.22, 0, 0, -0.22, 65.34, 41.96)" xlink:href="#linear-gradient-8"/><linearGradient id="linear-gradient-13" x1="414.98" y1="-259.64" x2="330.47" y2="-446.01" gradientTransform="matrix(0.22, 0, 0, -0.22, 65.34, 41.96)" xlink:href="#linear-gradient-8"/></defs><title>Xtream Drive</title><g id="Layer_2" data-name="Layer 2"><g id="Layer_1-2" data-name="Layer 1"><circle class="cls-1" cx="144.34" cy="130.21" r="27.54"/><path class="cls-2" d="M176.08,137.92c0-.4.09-.78.11-1.18C176.15,137.18,176.1,137.56,176.08,137.92Z"/><path class="cls-3" d="M150.33,156.7c-26.38.41-48-26.26-29.31-45.49a33.11,33.11,0,0,0-3.55,3.93c-.47.62-1,1.49-1.49,2.12a23,23,0,0,0-.72,23.16c11.3,22.09,52.11,27.87,60,2.61l.09-.33a28.42,28.42,0,0,0,.76-4.78C174.72,148.66,164.13,156.48,150.33,156.7Z"/><path class="cls-4" d="M166.3,158.11c-18.74,15.48-57.2,1-55.33-26.82l-.17,2.32a30.4,30.4,0,0,0,.2,5.18c3.79,23.52,35.78,35.65,54.29,20.59l.32-.29a32.49,32.49,0,0,0,3.93-4.31l.24-.33A20.65,20.65,0,0,1,166.3,158.11Z"/><path class="cls-5" d="M81.58,66.67c7.71-7.73,23.85-5.38,43,4.56C101.75,56.55,82.09,51.3,73.88,59.52c-9.12,9.12-1.66,32.34,16.86,58.3C77.05,95.19,72.78,75.45,81.58,66.67Z"/><path class="cls-6" d="M197.86,183.3c-7.71,7.71-23.86,5.39-43-4.55,22.8,14.67,42.48,19.92,50.67,11.7,9.12-9.11,1.66-32.34-16.86-58.29C202.39,154.78,206.66,174.53,197.86,183.3Z"/><path class="cls-7" d="M84.62,132.09a53.83,53.83,0,0,1,50.43-53.72c-.62,0-1.25,0-1.87,0a53.83,53.83,0,1,0,0,107.65c1.13,0,2.27,0,3.39-.11A53.81,53.81,0,0,1,84.62,132.09Z"/><path class="cls-8" d="M201.25,134.39a58.49,58.49,0,0,1-.33,6.25,49.13,49.13,0,0,0-55.13-64.48A58.3,58.3,0,0,1,201.25,134.39Z"/><path class="cls-9" d="M174.72,109.87a27.24,27.24,0,0,0-2.06-3.73A30.86,30.86,0,0,0,130,96.82l-.67.45A36.33,36.33,0,0,1,174.72,109.87Z"/><path class="cls-10" d="M139.27,151.28c-21.84-15.39-33.86-35.92-26.87-45.86,2.35-3.33,6.55-5,11.93-5.27-8.8-1-15.88.85-19.41,5.83-7.7,10.92,4.45,32.74,27.16,48.76,21.78,15.36,45.36,19.79,54,10.45C176,169.12,157.1,163.85,139.27,151.28Z"/><path class="cls-11" d="M217.2,77.52A15.83,15.83,0,0,1,219,85.19c2.59-5.61,3.06-10.55,1-14.37-5.78-10.6-29.63-9.4-58.38,1.48C188.86,64.48,210.81,65.8,217.2,77.52Z"/><path class="cls-12" d="M175.7,122.69c-.53-1.37-1.34-3.15-2-4.47-.12-.22-.25-.42-.38-.63,5.33,10.21,1.31,21.18-9.56,26.07-21.53,9.67-49.7-9.4-43.07-29.17a19.24,19.24,0,0,1,1.43-3.26h0s2.37-5.94,11.77-10c0,0,0,0,0,0-22.49,6.81-22.63,33-.22,44.51C154.77,156.59,182.54,145,175.7,122.69Z"/><path class="cls-13" d="M156.9,142.59c-49.14,25.93-95.82,34-104.24,18-4.85-9.18,4-24.36,21.86-40.53C49.46,140,35.86,159.47,41.69,170.51,50.4,187,99.34,178.35,151,151.1c42.57-22.47,73.69-50.53,78.4-68.95C221,99.61,193.41,123.31,156.9,142.59Z"/><path class="cls-14" d="M142,137.27c13,4.71,26.78-.87,29.22-11.28a27.47,27.47,0,0,0-2-6.3c.36,5.79-3,11.1-9.24,13.63-15.08,6.1-34.29-7.39-28.95-20.33,4.49-10.9,23.41-10.94,28.1-.09a7.75,7.75,0,0,1,.42,3.6c-1,6.48-11.32,8.29-15.81,2.77a5.29,5.29,0,0,1-1.3-3.8,4.12,4.12,0,0,1,2.19-3,6.38,6.38,0,0,1,2.62-.89,7.4,7.4,0,0,1,2.72.29c.4.11.76.29,1.14.42a3.61,3.61,0,0,1,1,.49c.11.09,0-.15,0,0,.07-3-5-4.46-9.38-2.81-6.5,2.45-6.12,11.37,2.54,15.23s20.91-1.36,17.11-12.13a0,0,0,0,0,0,0,14.87,14.87,0,0,0-4.78-5.9,27.36,27.36,0,0,0-13.38-3.46,27.78,27.78,0,0,0-9.85,1.81C120.87,112.9,125,131.08,142,137.27Z"/><path class="cls-15" d="M168.93,116.08h0c1.75,6.74-1.6,13.37-8.82,16.28C145,138.46,125.83,125,131.17,112c4.48-10.9,23.4-10.94,28.09-.09a7.86,7.86,0,0,1,.43,3.6c-1,6.48-11.33,8.29-15.82,2.77a5.28,5.28,0,0,1-1.29-3.8,4.07,4.07,0,0,1,2.19-3,6,6,0,0,1,4.26-.6,5.23,5.23,0,0,1,1.48.64,7,7,0,0,1,.78.56c.11.09.76.54.74.67.06-3-4.74-5.43-9.16-3.77-6.5,2.45-6.12,11.37,2.54,15.23s20.91-1.34,17.11-12.11a0,0,0,0,0,0,0c-3.73-8.71-17-12.75-26.87-8.13-14.78,7-10.94,26,6.55,32.32,16.84,6.14,35.13-5.14,28-21.8,0,0,0,0,0,0a24.52,24.52,0,0,0-7.95-8.83A21.66,21.66,0,0,1,168.93,116.08Zm.18-2.17Z"/><path class="cls-16" d="M64.74,222.68h0a4.76,4.76,0,0,1-2.06-.41A3,3,0,0,1,61.36,221a5.05,5.05,0,0,1-.52-2.16h0c0-.42,0-.81,0-1.18s0-.78,0-1.19h0a4.78,4.78,0,0,1,.54-2.14A3.11,3.11,0,0,1,62.73,213a4.38,4.38,0,0,1,2-.43h0a4.35,4.35,0,0,1,2,.43,3.11,3.11,0,0,1,1.35,1.29,4.53,4.53,0,0,1,.53,2.14h0c0,.41,0,.81,0,1.19s0,.76,0,1.18h0A4.91,4.91,0,0,1,68.1,221a3,3,0,0,1-1.32,1.28A4.73,4.73,0,0,1,64.74,222.68Zm0-1.19h0a2.45,2.45,0,0,0,1.74-.64,2.94,2.94,0,0,0,.73-2.09h0c0-.42,0-.8,0-1.13s0-.7,0-1.11h0a3.35,3.35,0,0,0-.35-1.57,2,2,0,0,0-.88-.88,2.61,2.61,0,0,0-1.24-.28h0a2.68,2.68,0,0,0-1.25.28,2,2,0,0,0-.87.88,3.59,3.59,0,0,0-.38,1.57h0c0,.41,0,.78,0,1.11s0,.71,0,1.13h0a3,3,0,0,0,.75,2.09A2.48,2.48,0,0,0,64.74,221.49Zm9.79,1h-.7a.32.32,0,0,1-.23-.09.29.29,0,0,1-.1-.23h0v-6.64a.28.28,0,0,1,.1-.23.32.32,0,0,1,.23-.09h.65a.32.32,0,0,1,.23.09.28.28,0,0,1,.1.23h0v.62a2.76,2.76,0,0,1,.91-.78,3,3,0,0,1,1.42-.3h0a2.84,2.84,0,0,1,1.55.4,2.47,2.47,0,0,1,1,1.1,3.86,3.86,0,0,1,.33,1.65h0v3.95a.32.32,0,0,1-.09.23.36.36,0,0,1-.24.09H79a.31.31,0,0,1-.32-.32h0v-3.88a2.28,2.28,0,0,0-.47-1.53,1.73,1.73,0,0,0-1.4-.56h0a1.81,1.81,0,0,0-1.4.56,2.1,2.1,0,0,0-.52,1.53h0v3.88a.31.31,0,0,1-.32.32Zm13.37.14h0a3.07,3.07,0,0,1-2.31-.89,3.71,3.71,0,0,1-.94-2.43h0c0-.12,0-.28,0-.47s0-.35,0-.47h0a4.14,4.14,0,0,1,.46-1.74,2.82,2.82,0,0,1,1.12-1.15,3.17,3.17,0,0,1,1.66-.41h0a3.29,3.29,0,0,1,1.78.45,2.85,2.85,0,0,1,1.1,1.27,4.61,4.61,0,0,1,.38,1.93h0V219a.32.32,0,0,1-.09.24.36.36,0,0,1-.23.08H86v.13h0a3,3,0,0,0,.25,1.07,2.07,2.07,0,0,0,.65.81,1.72,1.72,0,0,0,1,.3h0a2.1,2.1,0,0,0,.84-.15,2.28,2.28,0,0,0,.54-.34,2.18,2.18,0,0,0,.28-.3h0a.66.66,0,0,1,.2-.21.61.61,0,0,1,.22,0h.69a.31.31,0,0,1,.21.07.21.21,0,0,1,.08.22h0a1.07,1.07,0,0,1-.22.51,2.83,2.83,0,0,1-.6.6,3.37,3.37,0,0,1-.95.48A4.25,4.25,0,0,1,87.9,222.68ZM86,218.33v0h3.84v0a2.63,2.63,0,0,0-.23-1.12,1.82,1.82,0,0,0-.67-.78,1.76,1.76,0,0,0-1-.29h0a1.71,1.71,0,0,0-1,.29,1.78,1.78,0,0,0-.65.78,2.63,2.63,0,0,0-.23,1.12Zm18.8,4.35h0a4.09,4.09,0,0,1-1.35-.2,3.22,3.22,0,0,1-.91-.47,2.4,2.4,0,0,1-.52-.56,1.11,1.11,0,0,1-.19-.45h0a.27.27,0,0,1,.1-.24.33.33,0,0,1,.22-.08h.63a.22.22,0,0,1,.12,0,.33.33,0,0,1,.13.12h0l.41.39a1.73,1.73,0,0,0,.55.32,2.39,2.39,0,0,0,.82.13h0a2.32,2.32,0,0,0,1.18-.27.9.9,0,0,0,.46-.81h0a.78.78,0,0,0-.19-.56,1.64,1.64,0,0,0-.67-.38,10,10,0,0,0-1.32-.35h0a4.93,4.93,0,0,1-1.33-.48,1.85,1.85,0,0,1-.7-.69,1.93,1.93,0,0,1-.21-.9h0a1.85,1.85,0,0,1,.3-1,2.29,2.29,0,0,1,.91-.79,3.14,3.14,0,0,1,1.49-.31h0a3.73,3.73,0,0,1,1.24.18,2.69,2.69,0,0,1,.86.46,2.24,2.24,0,0,1,.5.54,1,1,0,0,1,.18.44h0a.25.25,0,0,1-.08.23.34.34,0,0,1-.22.1h-.59a.25.25,0,0,1-.16,0l-.12-.09h0a2.25,2.25,0,0,0-.33-.37,1.57,1.57,0,0,0-.49-.3,2.15,2.15,0,0,0-.79-.12h0a1.57,1.57,0,0,0-1,.3.92.92,0,0,0-.35.74h0a.8.8,0,0,0,.15.47,1.43,1.43,0,0,0,.59.38,12.12,12.12,0,0,0,1.29.37h0a4.61,4.61,0,0,1,1.45.49,1.82,1.82,0,0,1,.76.71,1.89,1.89,0,0,1,.22.94h0a1.91,1.91,0,0,1-.33,1.08,2.31,2.31,0,0,1-1,.77A4.24,4.24,0,0,1,104.78,222.68Zm11.43-.14h-1a2.41,2.41,0,0,1-1.27-.3,1.76,1.76,0,0,1-.72-.85,3.53,3.53,0,0,1-.22-1.31h0v-3.7h-1.09a.32.32,0,0,1-.23-.09.29.29,0,0,1-.1-.23h0v-.48a.28.28,0,0,1,.1-.23.32.32,0,0,1,.23-.09H113v-2.34a.3.3,0,0,1,.09-.23.32.32,0,0,1,.23-.09H114a.32.32,0,0,1,.23.09.3.3,0,0,1,.09.23h0v2.34h1.74a.29.29,0,0,1,.23.09.3.3,0,0,1,.09.23h0v.48a.32.32,0,0,1-.09.23.29.29,0,0,1-.23.09h-1.74V220a2,2,0,0,0,.22,1,.86.86,0,0,0,.8.38h.86a.32.32,0,0,1,.23.09.3.3,0,0,1,.09.23h0v.51a.31.31,0,0,1-.32.32Zm7.57.14h0a3.07,3.07,0,0,1-2.31-.89,3.66,3.66,0,0,1-.93-2.43h0c0-.12,0-.28,0-.47s0-.35,0-.47h0a4,4,0,0,1,.46-1.74,2.8,2.8,0,0,1,1.11-1.15,3.2,3.2,0,0,1,1.66-.41h0a3.29,3.29,0,0,1,1.78.45,2.79,2.79,0,0,1,1.1,1.27,4.61,4.61,0,0,1,.38,1.93h0V219a.32.32,0,0,1-.09.24.36.36,0,0,1-.23.08h-4.84v.13h0a2.79,2.79,0,0,0,.25,1.07,2,2,0,0,0,.65.81,1.71,1.71,0,0,0,1,.3h0a2.1,2.1,0,0,0,.84-.15,2,2,0,0,0,.83-.64h0a.57.57,0,0,1,.19-.21.63.63,0,0,1,.23,0h.68a.32.32,0,0,1,.22.07.23.23,0,0,1,.08.22h0a1.11,1.11,0,0,1-.23.51,3,3,0,0,1-.59.6,3.67,3.67,0,0,1-1,.48A4.27,4.27,0,0,1,123.78,222.68Zm-1.91-4.35v0h3.83v0a2.63,2.63,0,0,0-.23-1.12,1.79,1.79,0,0,0-1.7-1.07h0a1.76,1.76,0,0,0-1,.29,1.78,1.78,0,0,0-.65.78,2.63,2.63,0,0,0-.22,1.12Zm10.86,6.87h-.68a.31.31,0,0,1-.32-.32h0v-9.3a.3.3,0,0,1,.09-.23.32.32,0,0,1,.23-.09h.64a.32.32,0,0,1,.23.09.3.3,0,0,1,.09.23h0v.62a2.71,2.71,0,0,1,.9-.77,2.82,2.82,0,0,1,1.4-.31h0a3,3,0,0,1,1.34.27,2.39,2.39,0,0,1,.91.72,3.72,3.72,0,0,1,.54,1,5,5,0,0,1,.21,1.26h0c0,.15,0,.31,0,.48s0,.32,0,.48h0a5.19,5.19,0,0,1-.21,1.25,3.72,3.72,0,0,1-.54,1.05,2.74,2.74,0,0,1-.91.73,3,3,0,0,1-1.34.27h0a2.75,2.75,0,0,1-2.27-1.05h0v3.25a.36.36,0,0,1-.08.23.32.32,0,0,1-.23.09Zm2.29-3.65h0a1.86,1.86,0,0,0,1.14-.32,1.76,1.76,0,0,0,.59-.82,4,4,0,0,0,.21-1.1h0c0-.28,0-.55,0-.82h0a3.9,3.9,0,0,0-.21-1.1,1.71,1.71,0,0,0-.59-.82,1.8,1.8,0,0,0-1.14-.32h0a1.8,1.8,0,0,0-1.12.33,1.94,1.94,0,0,0-.63.81,3.28,3.28,0,0,0-.23,1h0c0,.14,0,.32,0,.53s0,.39,0,.55h0a2.59,2.59,0,0,0,.23,1,2,2,0,0,0,.65.79A1.9,1.9,0,0,0,135,221.55Zm17,1.13h0a4.09,4.09,0,0,1-1.35-.2,3.22,3.22,0,0,1-.91-.47,2.4,2.4,0,0,1-.52-.56A1.11,1.11,0,0,1,149,221h0a.25.25,0,0,1,.1-.24.33.33,0,0,1,.22-.08H150a.22.22,0,0,1,.12,0,.33.33,0,0,1,.13.12h0l.41.39a1.73,1.73,0,0,0,.55.32,2.39,2.39,0,0,0,.82.13h0a2.34,2.34,0,0,0,1.18-.27.9.9,0,0,0,.46-.81h0a.78.78,0,0,0-.19-.56,1.64,1.64,0,0,0-.67-.38,10.62,10.62,0,0,0-1.33-.35h0a4.93,4.93,0,0,1-1.33-.48,1.85,1.85,0,0,1-.7-.69,1.93,1.93,0,0,1-.21-.9h0a1.78,1.78,0,0,1,.31-1,2.29,2.29,0,0,1,.91-.79,3.14,3.14,0,0,1,1.49-.31h0a3.82,3.82,0,0,1,1.24.18,2.69,2.69,0,0,1,.86.46,2.24,2.24,0,0,1,.5.54,1,1,0,0,1,.18.44h0a.25.25,0,0,1-.08.23.34.34,0,0,1-.23.1h-.58a.25.25,0,0,1-.16,0l-.12-.09h0a2.25,2.25,0,0,0-.33-.37,1.57,1.57,0,0,0-.49-.3,2.15,2.15,0,0,0-.79-.12h0a1.57,1.57,0,0,0-1.05.3.92.92,0,0,0-.35.74h0a.8.8,0,0,0,.15.47,1.36,1.36,0,0,0,.59.38,12.12,12.12,0,0,0,1.29.37h0a4.61,4.61,0,0,1,1.45.49,1.73,1.73,0,0,1,1,1.65h0a1.91,1.91,0,0,1-.33,1.08,2.31,2.31,0,0,1-1,.77A4.24,4.24,0,0,1,152,222.68Zm10.6,0h0a3.55,3.55,0,0,1-1.78-.41,2.73,2.73,0,0,1-1.09-1.12,3.94,3.94,0,0,1-.42-1.65h0c0-.16,0-.37,0-.61s0-.45,0-.59h0a3.73,3.73,0,0,1,.43-1.65,2.68,2.68,0,0,1,1.09-1.12,3.46,3.46,0,0,1,1.77-.41h0a3.4,3.4,0,0,1,1.76.41,2.64,2.64,0,0,1,1.1,1.12,3.73,3.73,0,0,1,.43,1.65h0c0,.14,0,.34,0,.59s0,.45,0,.61h0a3.94,3.94,0,0,1-.42,1.65,2.73,2.73,0,0,1-1.09,1.12A3.58,3.58,0,0,1,162.61,222.68Zm0-1.08h0a1.81,1.81,0,0,0,1.38-.55,2.43,2.43,0,0,0,.56-1.62h0c0-.14,0-.32,0-.53s0-.39,0-.53h0a2.39,2.39,0,0,0-.56-1.62,1.78,1.78,0,0,0-1.38-.55h0a1.82,1.82,0,0,0-1.39.55,2.34,2.34,0,0,0-.56,1.62h0c0,.14,0,.31,0,.53s0,.39,0,.53h0a2.38,2.38,0,0,0,.56,1.62A1.85,1.85,0,0,0,162.61,221.6Zm9,.94H171a.31.31,0,0,1-.32-.32h0v-9.3a.3.3,0,0,1,.09-.23.32.32,0,0,1,.23-.09h.66a.29.29,0,0,1,.23.09.3.3,0,0,1,.09.23h0v9.3a.32.32,0,0,1-.09.23.29.29,0,0,1-.23.09Zm8.12.14h0a2.79,2.79,0,0,1-1.52-.4,2.55,2.55,0,0,1-.94-1.11,3.91,3.91,0,0,1-.33-1.64h0v-3.95a.28.28,0,0,1,.1-.23.32.32,0,0,1,.23-.09h.7a.32.32,0,0,1,.23.09.3.3,0,0,1,.09.23h0v3.88c0,1.39.61,2.09,1.82,2.09h0a1.82,1.82,0,0,0,1.39-.56,2.14,2.14,0,0,0,.53-1.53h0v-3.88a.3.3,0,0,1,.09-.23.32.32,0,0,1,.23-.09h.7a.28.28,0,0,1,.22.09.3.3,0,0,1,.09.23h0v6.64a.32.32,0,0,1-.09.23.28.28,0,0,1-.22.09h-.66a.31.31,0,0,1-.32-.32h0v-.62a2.65,2.65,0,0,1-2.34,1.08Zm12.52-.14h-1a2.41,2.41,0,0,1-1.27-.3,1.74,1.74,0,0,1-.71-.85,3.52,3.52,0,0,1-.23-1.31h0v-3.7H188a.31.31,0,0,1-.32-.32h0v-.48a.3.3,0,0,1,.09-.23.32.32,0,0,1,.23-.09h1.09v-2.34a.3.3,0,0,1,.09-.23.32.32,0,0,1,.23-.09h.66a.32.32,0,0,1,.23.09.3.3,0,0,1,.09.23h0v2.34h1.74a.32.32,0,0,1,.24.09.34.34,0,0,1,.08.23h0v.48a.36.36,0,0,1-.08.23.32.32,0,0,1-.24.09h-1.74V220a2,2,0,0,0,.23,1,.85.85,0,0,0,.8.38h.85a.32.32,0,0,1,.23.09.3.3,0,0,1,.09.23h0v.51a.31.31,0,0,1-.32.32Zm5.66,0h-.67a.31.31,0,0,1-.32-.32h0v-6.64a.3.3,0,0,1,.09-.23.32.32,0,0,1,.23-.09H198a.32.32,0,0,1,.23.09.3.3,0,0,1,.09.23h0v6.64a.31.31,0,0,1-.32.32Zm.1-8.64h-.88a.36.36,0,0,1-.24-.09.32.32,0,0,1-.09-.23h0v-.76a.3.3,0,0,1,.09-.23.33.33,0,0,1,.24-.1h.88a.33.33,0,0,1,.24.1.3.3,0,0,1,.09.23h0v.76a.32.32,0,0,1-.09.23.36.36,0,0,1-.24.09Zm8.28,8.78h0a3.55,3.55,0,0,1-1.78-.41,2.67,2.67,0,0,1-1.09-1.12,3.94,3.94,0,0,1-.42-1.65h0c0-.16,0-.37,0-.61s0-.45,0-.59h0a3.86,3.86,0,0,1,.42-1.65,2.76,2.76,0,0,1,1.1-1.12,3.46,3.46,0,0,1,1.77-.41h0a3.4,3.4,0,0,1,1.76.41,2.76,2.76,0,0,1,1.1,1.12,3.87,3.87,0,0,1,.43,1.65h0c0,.14,0,.34,0,.59s0,.45,0,.61h0a3.94,3.94,0,0,1-.42,1.65,2.7,2.7,0,0,1-1.1,1.12A3.51,3.51,0,0,1,206.34,222.68Zm0-1.08h0a1.84,1.84,0,0,0,1.38-.55,2.43,2.43,0,0,0,.56-1.62h0c0-.14,0-.32,0-.53s0-.39,0-.53h0a2.39,2.39,0,0,0-.56-1.62,1.81,1.81,0,0,0-1.38-.55h0a1.84,1.84,0,0,0-1.4.55,2.34,2.34,0,0,0-.55,1.62h0c0,.14,0,.31,0,.53s0,.39,0,.53h0a2.37,2.37,0,0,0,.55,1.62A1.87,1.87,0,0,0,206.34,221.6Zm9.07.94h-.7a.31.31,0,0,1-.32-.32h0v-6.64a.3.3,0,0,1,.09-.23.32.32,0,0,1,.23-.09h.66a.32.32,0,0,1,.23.09.3.3,0,0,1,.09.23h0v.62a2.9,2.9,0,0,1,.92-.78,3,3,0,0,1,1.42-.3h0a2.84,2.84,0,0,1,1.55.4,2.51,2.51,0,0,1,1,1.1,3.86,3.86,0,0,1,.33,1.65h0v3.95a.31.31,0,0,1-.32.32h-.7a.31.31,0,0,1-.32-.32h0v-3.88a2.23,2.23,0,0,0-.48-1.53,1.7,1.7,0,0,0-1.4-.56h0a1.79,1.79,0,0,0-1.39.56,2.11,2.11,0,0,0-.53,1.53h0v3.88a.31.31,0,0,1-.32.32Z"/><path class="cls-17" d="M21,114.1l-.54,1.69a.66.66,0,0,1-.3.36.54.54,0,0,1-.46.06h0a.41.41,0,0,1-.19-.12,1.18,1.18,0,0,1-.15-.11h0l-7.17-9.47L1.32,109.93a.91.91,0,0,1-.4,0h0a.61.61,0,0,1-.35-.3.55.55,0,0,1,0-.45h0l.54-1.72a.77.77,0,0,1,.28-.42,1.56,1.56,0,0,1,.45-.2h0L10.54,104,5,96.77a1,1,0,0,1-.26-.41.82.82,0,0,1,0-.49h0l.52-1.63a.52.52,0,0,1,.29-.34A.58.58,0,0,1,6,93.85H6a.71.71,0,0,1,.34.23h0l7,9,11.27-3.61a.29.29,0,0,1,.19,0l.22,0h0a.56.56,0,0,1,.34.3.63.63,0,0,1,0,.49h0L24.82,102a.76.76,0,0,1-.28.39,1.6,1.6,0,0,1-.45.23h0l-9.09,3,5.73,7.63a1.72,1.72,0,0,1,.25.43.69.69,0,0,1,0,.47Z"/><path class="cls-17" d="M35.33,80.73l-.81,1.33a.71.71,0,0,1-.43.33.7.7,0,0,1-.52-.09h0l-15.1-9.12-3,4.93a.65.65,0,0,1-.94.24h0l-1.08-.65a.72.72,0,0,1-.35-.43.65.65,0,0,1,.09-.54h0l7.47-12.38a.72.72,0,0,1,.44-.35.75.75,0,0,1,.55.11h0l1.08.65a.69.69,0,0,1,.33.42.76.76,0,0,1-.12.55h0l-3,4.91,15.11,9.11a.67.67,0,0,1,.31.43.7.7,0,0,1-.09.55Z"/><path class="cls-17" d="M49.86,62l-1.08,1.09a.66.66,0,0,1-1,0h0L33.92,49.29a.76.76,0,0,1-.24-.49.62.62,0,0,1,.22-.5h0l5.17-5.19A8.28,8.28,0,0,1,44,40.43a5.69,5.69,0,0,1,4.74,1.92h0a5.9,5.9,0,0,1,1.85,3.48,6,6,0,0,1-.78,3.64h0l8.92,2.36A.74.74,0,0,1,59,52h0a.56.56,0,0,1,.17.43.62.62,0,0,1-.19.44h0l-1,1a.93.93,0,0,1-.72.34,4.7,4.7,0,0,1-.68-.08h0l-8.47-2.3-3.71,3.72L49.88,61a.65.65,0,0,1,.2.49.66.66,0,0,1-.22.51ZM37.27,48.48l5.32,5.29,3.49-3.5a5.14,5.14,0,0,0,1.71-3.05,3.51,3.51,0,0,0-1.21-2.77h0a3.5,3.5,0,0,0-2.75-1.19A5,5,0,0,0,40.77,45h0Z"/><path class="cls-17" d="M82.87,36.13,72.05,42.65a.67.67,0,0,1-.54.09.63.63,0,0,1-.4-.32h0L61,25.64a.73.73,0,0,1-.11-.54.63.63,0,0,1,.33-.43h0l10.61-6.4a.64.64,0,0,1,.54-.09.67.67,0,0,1,.42.35h0l.59,1a.62.62,0,0,1-.23.94h0L64.4,25.72l3.39,5.63L76,26.42a.67.67,0,0,1,.54-.09.72.72,0,0,1,.43.35h0l.57.95a.7.7,0,0,1,.1.52.67.67,0,0,1-.34.43h0L69.09,33.5l3.52,5.84,8.94-5.4a.66.66,0,0,1,.53-.1.66.66,0,0,1,.42.34h0l.6,1a.66.66,0,0,1-.23,1Z"/><path class="cls-17" d="M97.77,29.12l-1.46.45a.6.6,0,0,1-.45-.05.61.61,0,0,1-.3-.35h0a2.72,2.72,0,0,1-.07-.33h0L97,8.11a1.24,1.24,0,0,1,.18-.56.92.92,0,0,1,.55-.35h0l2-.6a1,1,0,0,1,.65,0,1.29,1.29,0,0,1,.46.36h0l12.74,16.41a1.39,1.39,0,0,1,.15.3h0a.57.57,0,0,1,0,.46.53.53,0,0,1-.35.29h0l-1.46.45a.7.7,0,0,1-.56,0,1.2,1.2,0,0,1-.31-.25h0L108.09,21l-9.41,2.87-.34,4.55a.68.68,0,0,1-.1.38.75.75,0,0,1-.47.33ZM99.54,9.77l-.78,11.37,7.75-2.36Z"/><path class="cls-17" d="M131.39,21.78l-1.47,0a.72.72,0,0,1-.51-.19.7.7,0,0,1-.19-.49h0l-.36-19.58A.76.76,0,0,1,129,1a.74.74,0,0,1,.5-.21h0l1.5,0a.69.69,0,0,1,.54.17,1.1,1.1,0,0,1,.24.29h0l6.55,12L144.54,1a1.38,1.38,0,0,1,.22-.3.64.64,0,0,1,.52-.19h0l1.47,0a.72.72,0,0,1,.53.19.73.73,0,0,1,.21.52h0l.35,19.58a.64.64,0,0,1-.19.5.73.73,0,0,1-.52.21h0l-1.47,0a.66.66,0,0,1-.5-.19.66.66,0,0,1-.2-.48h0l-.27-14.76L139.86,16a.91.91,0,0,1-.35.46,1,1,0,0,1-.6.19H138a.89.89,0,0,1-.6-.16A1.31,1.31,0,0,1,137,16h0L131.8,6.32l.26,14.76a.62.62,0,0,1-.19.49.6.6,0,0,1-.48.21Z"/><path class="cls-17" d="M187,30.45l-6.45-2.61a.64.64,0,0,1-.4-.37.7.7,0,0,1,0-.53h0l7.32-18.16a.74.74,0,0,1,.37-.42.6.6,0,0,1,.54,0h0l6.32,2.54A11.32,11.32,0,0,1,199,13.64a5.75,5.75,0,0,1,1.53,3.58,10.47,10.47,0,0,1-.83,4.47h0c-.32.84-.6,1.57-.86,2.2s-.55,1.36-.9,2.16h0A11.38,11.38,0,0,1,195.34,30a5.5,5.5,0,0,1-3.52,1.48,11.38,11.38,0,0,1-4.85-1Zm2.54-18.88-5.95,14.75,4.23,1.7a7.83,7.83,0,0,0,3.27.71,3.59,3.59,0,0,0,2.35-1,8.92,8.92,0,0,0,1.78-2.87h0c.26-.54.48-1,.65-1.44l.5-1.25c.17-.42.34-.9.52-1.45h0a6.26,6.26,0,0,0,.33-4.51q-.7-1.78-3.59-3h0Z"/><path class="cls-17" d="M210.87,42.81l-1.22-.91a.65.65,0,0,1-.29-.47.69.69,0,0,1,.15-.5h0l11.72-15.69a.7.7,0,0,1,.46-.31.62.62,0,0,1,.52.14h0l5.87,4.38a8.35,8.35,0,0,1,3.35,4.49,5.71,5.71,0,0,1-1.23,5h0A5.89,5.89,0,0,1,227,41.23,6,6,0,0,1,223.3,41h0l-1.08,9.16a.71.71,0,0,1-.12.32h0a.56.56,0,0,1-.41.22.62.62,0,0,1-.46-.12h0l-1.15-.86a1,1,0,0,1-.44-.67,5.19,5.19,0,0,1,0-.68h0l1.07-8.71-4.2-3.14-4.64,6.2a.69.69,0,0,1-1,.12Zm11.64-14.37-4.49,6,4,3a5.07,5.07,0,0,0,3.25,1.26,3.52,3.52,0,0,0,2.57-1.59h0a3.53,3.53,0,0,0,.8-2.89,5.1,5.1,0,0,0-2.13-2.79h0Z"/><path class="cls-17" d="M232.77,62.68,231.7,61.5a.67.67,0,0,1-.2-.51.69.69,0,0,1,.25-.46h0l14.51-13.2a.69.69,0,0,1,.49-.2.66.66,0,0,1,.49.24h0l1.07,1.18a.66.66,0,0,1,.19.51.64.64,0,0,1-.24.46h0l-14.52,13.2a.65.65,0,0,1-1,0Z"/><path class="cls-17" d="M246.89,81.84l-1-1.66a1.09,1.09,0,0,1-.19-.72,1.45,1.45,0,0,1,.28-.64h0l13-15.74a1,1,0,0,1,.25-.22h0a.61.61,0,0,1,.46-.07.6.6,0,0,1,.37.27h0l.81,1.33A.8.8,0,0,1,261,65a1,1,0,0,1-.16.39h0L249.33,79.2l17.58-3.81a1.25,1.25,0,0,1,.42,0,.71.71,0,0,1,.45.36h0l.81,1.33a.63.63,0,0,1,.07.47.54.54,0,0,1-.25.38h0a.76.76,0,0,1-.32.12h0l-20,4.29a1.2,1.2,0,0,1-.68,0,1.06,1.06,0,0,1-.55-.49Z"/><path class="cls-17" d="M261.21,114.55l-3.76-12.06a.68.68,0,0,1,0-.55.73.73,0,0,1,.42-.32h0l18.7-5.82a.73.73,0,0,1,.55,0,.65.65,0,0,1,.35.43h0l3.68,11.83a.66.66,0,0,1,0,.54.75.75,0,0,1-.45.33h0l-1.08.34a.71.71,0,0,1-.54,0,.73.73,0,0,1-.33-.44h0l-3-9.73-6.27,2,2.83,9.11a.59.59,0,0,1,0,.54.7.7,0,0,1-.44.33h0l-1.06.33a.74.74,0,0,1-.53,0,.65.65,0,0,1-.33-.43h0L267,101.8l-6.5,2,3.1,10a.62.62,0,0,1-.45.86h0l-1.12.35a.67.67,0,0,1-.52,0,.62.62,0,0,1-.34-.42Z"/></g></g></svg>