<svg xmlns="http://www.w3.org/2000/svg" xmlns:xlink="http://www.w3.org/1999/xlink" viewBox="0 0 254.52 246.21"><defs><style>.cls-1{fill:url(#linear-gradient);}.cls-2{fill:#0c0528;}.cls-3{fill:url(#linear-gradient-2);}.cls-4{fill:url(#linear-gradient-3);}.cls-5{fill:url(#linear-gradient-4);}.cls-6{fill:url(#linear-gradient-5);}.cls-7{fill:url(#linear-gradient-6);}.cls-8{fill:url(#linear-gradient-7);}.cls-9{fill:url(#linear-gradient-8);}.cls-10{fill:url(#linear-gradient-9);}.cls-11{fill:url(#linear-gradient-10);}.cls-12{fill:url(#linear-gradient-11);}.cls-13{fill:url(#linear-gradient-12);}.cls-14{fill:#5076ff;}.cls-15{fill:url(#linear-gradient-13);}.cls-16,.cls-17{fill:none;stroke-miterlimit:10;}.cls-16{stroke:#0e0ea5;}.cls-17{stroke:#1515bc;}</style><linearGradient id="linear-gradient" x1="305.71" y1="-342.47" x2="374.48" y2="-177.42" gradientTransform="matrix(0.27, 0, 0, -0.27, 48.53, 14.92)" gradientUnits="userSpaceOnUse"><stop offset="0.01" stop-color="#20e8fe"/><stop offset="1" stop-color="#b5f5fe"/></linearGradient><linearGradient id="linear-gradient-2" x1="309.75" y1="-376.54" x2="350.47" y2="-220.39" gradientTransform="matrix(0.27, 0, 0, -0.27, 48.53, 14.92)" gradientUnits="userSpaceOnUse"><stop offset="0" stop-color="#244afa"/><stop offset="1" stop-color="#8c50ff"/></linearGradient><linearGradient id="linear-gradient-3" x1="304.13" y1="-375.07" x2="344.84" y2="-218.93" xlink:href="#linear-gradient-2"/><linearGradient id="linear-gradient-4" x1="183.73" y1="-20.33" x2="86.31" y2="-74.2" gradientTransform="matrix(0.27, 0, 0, -0.27, 48.53, 14.92)" gradientUnits="userSpaceOnUse"><stop offset="0" stop-color="#0c0528"/><stop offset="1" stop-color="#703fef"/></linearGradient><linearGradient id="linear-gradient-5" x1="436.89" y1="-483.9" x2="568.7" y2="-419.71" xlink:href="#linear-gradient-4"/><linearGradient id="linear-gradient-6" x1="41.15" y1="-287.71" x2="297.35" y2="-287.71" gradientTransform="matrix(0.27, 0, 0, -0.27, 48.53, 14.92)" gradientUnits="userSpaceOnUse"><stop offset="0" stop-color="#7e4afa"/><stop offset="1" stop-color="#8c50ff"/></linearGradient><linearGradient id="linear-gradient-7" x1="338.65" y1="-179.61" x2="597.65" y2="-179.61" xlink:href="#linear-gradient-6"/><linearGradient id="linear-gradient-8" x1="78.88" y1="-36.69" x2="284.26" y2="-36.69" gradientTransform="matrix(0.27, 0.01, 0.01, -0.27, 99.43, 42.6)" gradientUnits="userSpaceOnUse"><stop offset="0" stop-color="#c59ffa"/><stop offset="1" stop-color="#8c50ff"/></linearGradient><linearGradient id="linear-gradient-9" x1="2292.28" y1="-3501.26" x2="2457.38" y2="-3501.26" gradientTransform="matrix(0.21, -0.18, -0.18, -0.21, -977.66, -192.83)" xlink:href="#linear-gradient-8"/><linearGradient id="linear-gradient-10" x1="438.91" y1="34.94" x2="654.39" y2="-62.49" xlink:href="#linear-gradient-4"/><linearGradient id="linear-gradient-11" x1="394.83" y1="-144.15" x2="310.32" y2="-330.52" xlink:href="#linear-gradient-2"/><linearGradient id="linear-gradient-12" x1="-133.45" y1="-280.36" x2="712.75" y2="-280.36" gradientTransform="matrix(0.27, 0, 0, -0.27, 48.53, 14.92)" xlink:href="#linear-gradient-8"/><linearGradient id="linear-gradient-13" x1="393.41" y1="-143.51" x2="308.9" y2="-329.88" gradientTransform="matrix(0.27, 0, 0, -0.27, 48.53, 14.92)" xlink:href="#linear-gradient-8"/></defs><title>Xtream Drive</title><g id="Layer_2" data-name="Layer 2"><g id="Layer_1-2" data-name="Layer 1"><circle class="cls-1" cx="138.81" cy="90.75" r="33.51"/><path class="cls-2" d="M177.43,100.13c.06-.49.11-1,.14-1.44C177.51,99.23,177.46,99.69,177.43,100.13Z"/><path class="cls-3" d="M146.09,123c-32.09.49-58.43-32-35.65-55.36a38.74,38.74,0,0,0-4.33,4.78c-.57.76-1.27,1.82-1.82,2.59-7.25,11.79-3.67,22.72-.87,28.18,13.76,26.88,63.41,33.92,73,3.18l.11-.41a35.09,35.09,0,0,0,.92-5.81C175.77,113.2,162.89,122.71,146.09,123Z"/><path class="cls-4" d="M165.53,124.7c-22.81,18.83-69.61,1.16-67.33-32.65L98,94.88a38.51,38.51,0,0,0,.24,6.31c4.62,28.61,43.54,43.37,66.07,25l.38-.35a39.22,39.22,0,0,0,4.79-5.24l.3-.41A26.13,26.13,0,0,1,165.53,124.7Z"/><path class="cls-5" d="M62.44,13.43C71.81,4,91.46,6.88,114.73,19,87,1.11,63.06-5.27,53.06,4.73,42,15.82,51.05,44.08,73.58,75.66,56.92,48.13,51.73,24.11,62.44,13.43Z"/><path class="cls-6" d="M203.93,155.35c-9.38,9.38-29,6.55-52.29-5.54,27.75,17.85,51.69,24.24,61.67,14.24,11.09-11.09,2-39.35-20.52-70.94C209.45,120.65,214.64,144.67,203.93,155.35Z"/><path class="cls-7" d="M66.13,93A65.49,65.49,0,0,1,127.5,27.67c-.76,0-1.52-.06-2.28-.06a65.5,65.5,0,0,0,0,131c1.39,0,2.77-.05,4.13-.13A65.49,65.49,0,0,1,66.13,93Z"/><path class="cls-8" d="M208.06,95.83a68.24,68.24,0,0,1-.41,7.61A59.77,59.77,0,0,0,140.58,25,70.93,70.93,0,0,1,208.06,95.83Z"/><path class="cls-9" d="M175.77,66a34.81,34.81,0,0,0-2.5-4.54,37.56,37.56,0,0,0-51.91-11.33c-.27.16-.54.35-.81.54A44.19,44.19,0,0,1,175.77,66Z"/><path class="cls-10" d="M132.64,116.38c-26.58-18.73-41.2-43.7-32.7-55.8,2.86-4,8-6.14,14.52-6.41-10.71-1.23-19.33,1-23.62,7.09-9.38,13.29,5.41,39.84,33.05,59.33,26.5,18.7,55.2,24.08,65.74,12.72C177.3,138.09,154.33,131.68,132.64,116.38Z"/><path class="cls-11" d="M227.47,26.63A19.26,19.26,0,0,1,229.7,36c3.15-6.83,3.72-12.83,1.19-17.48-7-12.91-36.06-11.44-71,1.79C193,10.76,219.69,12.37,227.47,26.63Z"/><path class="cls-12" d="M177,81.59c-.65-1.66-1.63-3.83-2.39-5.44-.14-.27-.3-.51-.46-.76,6.49,12.42,1.6,25.77-11.64,31.72-26.2,11.77-60.47-11.44-52.4-35.49a22.27,22.27,0,0,1,1.74-4h0s2.88-7.23,14.32-12.12l0,0c-27.37,8.29-27.53,40.17-.27,54.17C151.5,122.85,185.29,108.8,177,81.59Z"/><path class="cls-13" d="M154.08,105.81c-59.79,31.55-116.59,41.39-126.84,22-5.9-11.17,4.92-29.66,26.61-49.33C23.35,102.6,6.8,126.35,13.9,139.78c10.6,20.11,70.14,9.54,133-23.62,51.81-27.34,89.67-61.48,95.4-83.9C232.11,53.51,198.52,82.35,154.08,105.81Z"/><path class="cls-14" d="M135.9,99.34c15.77,5.73,32.59-1.06,35.55-13.73A33.14,33.14,0,0,0,169,78c.43,7-3.64,13.51-11.25,16.58-18.35,7.42-41.72-9-35.23-24.74,5.47-13.26,28.49-13.31,34.19-.1a9.3,9.3,0,0,1,.52,4.37C156,81.94,143.43,84.14,138,77.43a6.37,6.37,0,0,1-1.58-4.62,5,5,0,0,1,2.66-3.64,8,8,0,0,1,3.18-1.09,9.12,9.12,0,0,1,3.32.36c.49.13.92.35,1.39.51a4.36,4.36,0,0,1,1.25.6c.13.11,0-.19,0,0,.08-3.59-6-5.44-11.42-3.42-7.91,3-7.45,13.83,3.1,18.53S165.31,83,160.69,69.9c0,0,0,0,0,0a18.07,18.07,0,0,0-5.81-7.18,33.35,33.35,0,0,0-16.28-4.21,33.8,33.8,0,0,0-12,2.2C110.25,69.69,115.22,91.81,135.9,99.34Z"/><path class="cls-15" d="M168.73,73.54h0c2.12,8.21-1.95,16.28-10.73,19.82-18.35,7.42-41.72-9-35.23-24.73,5.47-13.27,28.49-13.32,34.2-.11a9.46,9.46,0,0,1,.51,4.37c-1.19,7.88-13.78,10.09-19.24,3.37a6.4,6.4,0,0,1-1.58-4.62A5,5,0,0,1,139.33,68a7.31,7.31,0,0,1,5.19-.73,6.58,6.58,0,0,1,1.79.78,9.11,9.11,0,0,1,.95.68c.14.11.93.66.9.82C148.24,66,142.4,63,137,65c-7.91,3-7.45,13.83,3.09,18.53s25.44-1.63,20.82-14.73c0,0,0,0,0,0-4.54-10.6-20.71-15.51-32.7-9.89-18,8.45-13.32,31.61,8,39.33,20.5,7.47,42.76-6.25,34.09-26.53,0,0,0,0,0,0a29.83,29.83,0,0,0-9.68-10.74A26.41,26.41,0,0,1,168.73,73.54Zm.22-2.63Z"/><path class="cls-16" d="M51.15,243.19h0a4.76,4.76,0,0,1-2.06-.41,3,3,0,0,1-1.32-1.28,5,5,0,0,1-.52-2.16h0c0-.41,0-.81,0-1.18s0-.78,0-1.19h0a4.82,4.82,0,0,1,.54-2.14,3.11,3.11,0,0,1,1.35-1.29,4.38,4.38,0,0,1,2-.43h0a4.35,4.35,0,0,1,2,.43,3.11,3.11,0,0,1,1.35,1.29A4.57,4.57,0,0,1,55,237h0c0,.41,0,.81,0,1.19s0,.77,0,1.18h0a4.85,4.85,0,0,1-.51,2.16,3,3,0,0,1-1.32,1.28A4.73,4.73,0,0,1,51.15,243.19Zm0-1.19h0a2.41,2.41,0,0,0,1.74-.64,2.93,2.93,0,0,0,.73-2.09h0c0-.42,0-.8,0-1.13s0-.7,0-1.11h0a3.35,3.35,0,0,0-.35-1.57,2.07,2.07,0,0,0-.88-.88,2.61,2.61,0,0,0-1.24-.28h0a2.68,2.68,0,0,0-1.25.28,2,2,0,0,0-.87.88,3.59,3.59,0,0,0-.38,1.57h0c0,.41,0,.78,0,1.11s0,.71,0,1.13h0a2.93,2.93,0,0,0,.75,2.09A2.44,2.44,0,0,0,51.15,242Zm9.79,1.05h-.7A.32.32,0,0,1,60,243a.29.29,0,0,1-.1-.23h0v-6.64a.29.29,0,0,1,.1-.23.32.32,0,0,1,.23-.09h.65a.32.32,0,0,1,.23.09.29.29,0,0,1,.1.23h0v.62a2.76,2.76,0,0,1,.91-.78,3,3,0,0,1,1.42-.3h0a2.84,2.84,0,0,1,1.55.4,2.53,2.53,0,0,1,1,1.1,3.86,3.86,0,0,1,.33,1.65h0v3.95a.32.32,0,0,1-.09.23.36.36,0,0,1-.24.09h-.7a.31.31,0,0,1-.32-.32h0v-3.88a2.31,2.31,0,0,0-.47-1.53,1.76,1.76,0,0,0-1.4-.56h0a1.84,1.84,0,0,0-1.4.56,2.13,2.13,0,0,0-.52,1.53h0v3.88a.31.31,0,0,1-.32.32Zm13.37.14h0A3.07,3.07,0,0,1,72,242.3a3.67,3.67,0,0,1-.94-2.43h0c0-.12,0-.28,0-.47s0-.34,0-.47h0a4.14,4.14,0,0,1,.46-1.74A2.88,2.88,0,0,1,72.64,236a3.27,3.27,0,0,1,1.66-.41h0a3.29,3.29,0,0,1,1.78.45,2.85,2.85,0,0,1,1.1,1.27,4.65,4.65,0,0,1,.38,1.93h0v.24a.3.3,0,0,1-.09.24.36.36,0,0,1-.23.08H72.39V240h0a2.94,2.94,0,0,0,.25,1.07,2.07,2.07,0,0,0,.65.81,1.72,1.72,0,0,0,1,.3h0a2.1,2.1,0,0,0,.84-.15,2,2,0,0,0,.54-.34,2.18,2.18,0,0,0,.28-.3h0a1,1,0,0,1,.2-.21.61.61,0,0,1,.22,0h.69a.31.31,0,0,1,.21.07.22.22,0,0,1,.08.22h0a1.07,1.07,0,0,1-.22.51,2.83,2.83,0,0,1-.6.6,3.37,3.37,0,0,1-1,.48A4,4,0,0,1,74.31,243.19Zm-1.92-4.35v0h3.84v0a2.67,2.67,0,0,0-.23-1.12,1.81,1.81,0,0,0-1.7-1.07h0a1.76,1.76,0,0,0-1.68,1.07,2.67,2.67,0,0,0-.23,1.12Zm18.8,4.35h0a4.09,4.09,0,0,1-1.35-.2,3,3,0,0,1-.91-.47,2.22,2.22,0,0,1-.52-.56,1.11,1.11,0,0,1-.19-.45h0a.27.27,0,0,1,.1-.24.4.4,0,0,1,.22-.08h.63l.12,0a.33.33,0,0,1,.13.12h0c.13.13.26.26.41.39a1.73,1.73,0,0,0,.55.32,2.17,2.17,0,0,0,.82.13h0a2.32,2.32,0,0,0,1.18-.27.9.9,0,0,0,.46-.81h0a.79.79,0,0,0-.19-.56,1.64,1.64,0,0,0-.67-.38,11.8,11.8,0,0,0-1.32-.35h0a4.93,4.93,0,0,1-1.33-.48,1.72,1.72,0,0,1-.7-.69,1.93,1.93,0,0,1-.21-.9h0a1.85,1.85,0,0,1,.3-1,2.37,2.37,0,0,1,.91-.79,3.14,3.14,0,0,1,1.49-.31h0a3.73,3.73,0,0,1,1.24.18,2.69,2.69,0,0,1,.86.46,2.24,2.24,0,0,1,.5.54,1,1,0,0,1,.18.44h0a.25.25,0,0,1-.08.23.3.3,0,0,1-.22.1H93a.25.25,0,0,1-.16-.05l-.12-.09h0a2.25,2.25,0,0,0-.33-.37,1.57,1.57,0,0,0-.49-.3,2.15,2.15,0,0,0-.79-.12h0a1.57,1.57,0,0,0-1.05.3.92.92,0,0,0-.35.74h0a.8.8,0,0,0,.15.47,1.33,1.33,0,0,0,.59.38,10.12,10.12,0,0,0,1.29.37h0a4.61,4.61,0,0,1,1.45.49,1.88,1.88,0,0,1,.76.71,1.92,1.92,0,0,1,.22.94h0a1.91,1.91,0,0,1-.33,1.08,2.24,2.24,0,0,1-1,.77A4.24,4.24,0,0,1,91.19,243.19Zm11.43-.14h-1a2.41,2.41,0,0,1-1.27-.3,1.72,1.72,0,0,1-.72-.85,3.49,3.49,0,0,1-.22-1.31h0v-3.7H98.35a.32.32,0,0,1-.23-.09.29.29,0,0,1-.1-.23h0v-.48a.29.29,0,0,1,.1-.23.32.32,0,0,1,.23-.09h1.09v-2.34a.31.31,0,0,1,.32-.32h.66a.31.31,0,0,1,.32.32h0v2.34h1.74a.29.29,0,0,1,.23.09.32.32,0,0,1,.09.23h0v.48a.32.32,0,0,1-.09.23.29.29,0,0,1-.23.09h-1.74v3.6a2,2,0,0,0,.22,1,.86.86,0,0,0,.8.38h.86a.31.31,0,0,1,.32.32h0v.51a.31.31,0,0,1-.32.32Zm7.57.14h0a3.07,3.07,0,0,1-2.31-.89,3.62,3.62,0,0,1-.93-2.43h0c0-.12,0-.28,0-.47s0-.34,0-.47h0a4,4,0,0,1,.46-1.74,2.86,2.86,0,0,1,1.11-1.15,3.29,3.29,0,0,1,1.66-.41h0a3.29,3.29,0,0,1,1.78.45,2.79,2.79,0,0,1,1.1,1.27,4.65,4.65,0,0,1,.38,1.93h0v.24a.3.3,0,0,1-.09.24.36.36,0,0,1-.23.08h-4.84V240h0a2.75,2.75,0,0,0,.25,1.07,2,2,0,0,0,.65.81,1.71,1.71,0,0,0,1,.3h0A2.1,2.1,0,0,0,111,242a1.92,1.92,0,0,0,.55-.34,2.18,2.18,0,0,0,.28-.3h0a.82.82,0,0,1,.19-.21.63.63,0,0,1,.23,0H113a.32.32,0,0,1,.22.07.24.24,0,0,1,.08.22h0a1.11,1.11,0,0,1-.23.51,3,3,0,0,1-.59.6,3.67,3.67,0,0,1-1,.48A4,4,0,0,1,110.19,243.19Zm-1.91-4.35v0h3.83v0a2.67,2.67,0,0,0-.23-1.12,1.8,1.8,0,0,0-.66-.78,1.87,1.87,0,0,0-1-.29h0a1.83,1.83,0,0,0-1,.29,1.78,1.78,0,0,0-.65.78,2.67,2.67,0,0,0-.22,1.12Zm10.86,6.87h-.68a.31.31,0,0,1-.32-.32h0v-9.3a.31.31,0,0,1,.32-.32h.64a.31.31,0,0,1,.32.32h0v.62a2.7,2.7,0,0,1,2.3-1.08h0a3,3,0,0,1,1.34.27,2.39,2.39,0,0,1,.91.72,3.72,3.72,0,0,1,.54,1,5,5,0,0,1,.21,1.26h0c0,.15,0,.31,0,.48s0,.33,0,.48h0a5.19,5.19,0,0,1-.21,1.25,3.72,3.72,0,0,1-.54,1.05,2.74,2.74,0,0,1-.91.73,3,3,0,0,1-1.34.27h0a2.75,2.75,0,0,1-2.27-1.05h0v3.25a.36.36,0,0,1-.08.23.32.32,0,0,1-.23.09Zm2.29-3.65h0a1.86,1.86,0,0,0,1.14-.32,1.76,1.76,0,0,0,.59-.82,4,4,0,0,0,.21-1.1h0c0-.27,0-.55,0-.82h0a4,4,0,0,0-.21-1.1,1.76,1.76,0,0,0-.59-.82,1.86,1.86,0,0,0-1.14-.32h0a1.8,1.8,0,0,0-1.12.33,1.94,1.94,0,0,0-.63.81,3.28,3.28,0,0,0-.23,1h0c0,.15,0,.32,0,.53s0,.39,0,.55h0a2.5,2.5,0,0,0,.23,1,2,2,0,0,0,.65.79A1.83,1.83,0,0,0,121.43,242.06Zm17,1.13h0a4.09,4.09,0,0,1-1.35-.2,3,3,0,0,1-.91-.47,2.22,2.22,0,0,1-.52-.56,1.11,1.11,0,0,1-.19-.45h0a.25.25,0,0,1,.1-.24.4.4,0,0,1,.22-.08h.63l.12,0a.33.33,0,0,1,.13.12h0a5.16,5.16,0,0,0,.41.39,1.73,1.73,0,0,0,.55.32,2.17,2.17,0,0,0,.82.13h0a2.34,2.34,0,0,0,1.18-.27.9.9,0,0,0,.46-.81h0a.79.79,0,0,0-.19-.56,1.64,1.64,0,0,0-.67-.38,12.72,12.72,0,0,0-1.33-.35h0a4.93,4.93,0,0,1-1.33-.48,1.72,1.72,0,0,1-.7-.69,1.93,1.93,0,0,1-.21-.9h0a1.78,1.78,0,0,1,.31-1,2.37,2.37,0,0,1,.91-.79,3.14,3.14,0,0,1,1.49-.31h0a3.82,3.82,0,0,1,1.24.18,2.69,2.69,0,0,1,.86.46,2.24,2.24,0,0,1,.5.54,1,1,0,0,1,.18.44h0a.25.25,0,0,1-.08.23.3.3,0,0,1-.23.1h-.58a.25.25,0,0,1-.16-.05l-.12-.09h0a2.25,2.25,0,0,0-.33-.37,1.57,1.57,0,0,0-.49-.3,2.15,2.15,0,0,0-.79-.12h0a1.57,1.57,0,0,0-1,.3.92.92,0,0,0-.35.74h0a.8.8,0,0,0,.15.47,1.28,1.28,0,0,0,.59.38,10.12,10.12,0,0,0,1.29.37h0a4.61,4.61,0,0,1,1.45.49,2,2,0,0,1,.76.71,1.92,1.92,0,0,1,.22.94h0a1.91,1.91,0,0,1-.33,1.08,2.24,2.24,0,0,1-1,.77A4.24,4.24,0,0,1,138.42,243.19Zm10.6,0h0a3.55,3.55,0,0,1-1.78-.41,2.73,2.73,0,0,1-1.09-1.12,3.94,3.94,0,0,1-.42-1.65h0c0-.16,0-.36,0-.61s0-.44,0-.59h0a3.73,3.73,0,0,1,.43-1.65,2.73,2.73,0,0,1,1.09-1.12,3.56,3.56,0,0,1,1.77-.41h0a3.5,3.5,0,0,1,1.76.41,2.7,2.7,0,0,1,1.1,1.12,3.73,3.73,0,0,1,.43,1.65h0c0,.15,0,.34,0,.59s0,.45,0,.61h0a3.94,3.94,0,0,1-.42,1.65,2.73,2.73,0,0,1-1.09,1.12A3.58,3.58,0,0,1,149,243.19Zm0-1.08h0a1.78,1.78,0,0,0,1.38-.55,2.43,2.43,0,0,0,.56-1.62h0c0-.14,0-.32,0-.53s0-.39,0-.53h0a2.43,2.43,0,0,0-.56-1.62,1.78,1.78,0,0,0-1.38-.55h0a1.82,1.82,0,0,0-1.39.55,2.38,2.38,0,0,0-.56,1.62h0c0,.14,0,.32,0,.53s0,.39,0,.53h0a2.38,2.38,0,0,0,.56,1.62A1.82,1.82,0,0,0,149,242.11Zm9,.94h-.66a.31.31,0,0,1-.32-.32h0v-9.3a.31.31,0,0,1,.32-.32h.66a.29.29,0,0,1,.23.09.32.32,0,0,1,.09.23h0v9.3a.32.32,0,0,1-.09.23.29.29,0,0,1-.23.09Zm8.12.14h0a2.71,2.71,0,0,1-1.52-.4,2.55,2.55,0,0,1-.94-1.11,3.91,3.91,0,0,1-.33-1.64h0v-3.95a.29.29,0,0,1,.1-.23.32.32,0,0,1,.23-.09h.7a.31.31,0,0,1,.32.32h0V240c0,1.39.61,2.09,1.82,2.09h0a1.82,1.82,0,0,0,1.39-.56,2.14,2.14,0,0,0,.53-1.53h0v-3.88a.31.31,0,0,1,.32-.32h.7a.28.28,0,0,1,.22.09.32.32,0,0,1,.09.23h0v6.64a.32.32,0,0,1-.09.23.28.28,0,0,1-.22.09h-.66a.31.31,0,0,1-.32-.32h0v-.62a2.91,2.91,0,0,1-.92.79A3,3,0,0,1,166.19,243.19Zm12.52-.14h-1a2.41,2.41,0,0,1-1.27-.3,1.7,1.7,0,0,1-.71-.85,3.48,3.48,0,0,1-.23-1.31h0v-3.7h-1.09a.31.31,0,0,1-.32-.32h0v-.48a.31.31,0,0,1,.32-.32h1.09v-2.34a.31.31,0,0,1,.32-.32h.66a.31.31,0,0,1,.32.32h0v2.34h1.74a.32.32,0,0,1,.24.09.36.36,0,0,1,.08.23h0v.48a.36.36,0,0,1-.08.23.32.32,0,0,1-.24.09h-1.74v3.6a2,2,0,0,0,.23,1,.85.85,0,0,0,.8.38h.85a.31.31,0,0,1,.32.32h0v.51a.31.31,0,0,1-.32.32Zm5.66,0h-.67a.31.31,0,0,1-.32-.32h0v-6.64a.31.31,0,0,1,.32-.32h.67a.31.31,0,0,1,.32.32h0v6.64a.31.31,0,0,1-.32.32Zm.1-8.64h-.88a.36.36,0,0,1-.24-.09.32.32,0,0,1-.09-.23h0v-.76a.32.32,0,0,1,.09-.23.33.33,0,0,1,.24-.1h.88a.33.33,0,0,1,.24.1.32.32,0,0,1,.09.23h0v.76a.32.32,0,0,1-.09.23.36.36,0,0,1-.24.09Zm8.28,8.78h0a3.55,3.55,0,0,1-1.78-.41,2.67,2.67,0,0,1-1.09-1.12,3.94,3.94,0,0,1-.42-1.65h0c0-.16,0-.36,0-.61s0-.44,0-.59h0a3.86,3.86,0,0,1,.42-1.65A2.82,2.82,0,0,1,191,236a3.56,3.56,0,0,1,1.77-.41h0a3.5,3.5,0,0,1,1.76.41,2.82,2.82,0,0,1,1.1,1.12,3.87,3.87,0,0,1,.43,1.65h0c0,.15,0,.34,0,.59s0,.45,0,.61h0a3.94,3.94,0,0,1-.42,1.65,2.7,2.7,0,0,1-1.1,1.12A3.51,3.51,0,0,1,192.75,243.19Zm0-1.08h0a1.81,1.81,0,0,0,1.38-.55,2.43,2.43,0,0,0,.56-1.62h0c0-.14,0-.32,0-.53s0-.39,0-.53h0a2.43,2.43,0,0,0-.56-1.62,1.81,1.81,0,0,0-1.38-.55h0a1.84,1.84,0,0,0-1.4.55,2.37,2.37,0,0,0-.55,1.62h0c0,.14,0,.32,0,.53s0,.39,0,.53h0a2.37,2.37,0,0,0,.55,1.62A1.84,1.84,0,0,0,192.75,242.11Zm9.07.94h-.7a.31.31,0,0,1-.32-.32h0v-6.64a.31.31,0,0,1,.32-.32h.66a.31.31,0,0,1,.32.32h0v.62a2.9,2.9,0,0,1,.92-.78,3,3,0,0,1,1.42-.3h0a2.84,2.84,0,0,1,1.55.4,2.57,2.57,0,0,1,1,1.1,3.86,3.86,0,0,1,.33,1.65h0v3.95a.31.31,0,0,1-.32.32h-.7a.31.31,0,0,1-.32-.32h0v-3.88a2.26,2.26,0,0,0-.48-1.53,1.73,1.73,0,0,0-1.4-.56h0a1.82,1.82,0,0,0-1.39.56,2.14,2.14,0,0,0-.53,1.53h0v3.88a.31.31,0,0,1-.32.32Z"/><path class="cls-17" d="M2.9,219H1.13a.64.64,0,0,1-.44-.18.55.55,0,0,1-.19-.42h0a.54.54,0,0,1,.05-.22L.62,218h0l6.87-9.69L1,199a.86.86,0,0,1-.09-.39h0a.58.58,0,0,1,.18-.42.58.58,0,0,1,.42-.18h1.8a.78.78,0,0,1,.48.14,1.34,1.34,0,0,1,.33.37h0L9.35,206l5.25-7.5a1,1,0,0,1,.31-.37.82.82,0,0,1,.47-.14h1.71a.62.62,0,0,1,.6.6h0a.69.69,0,0,1-.12.39h0l-6.45,9.36L18,218a.39.39,0,0,1,.09.17.78.78,0,0,1,0,.22h0a.58.58,0,0,1-.18.42.61.61,0,0,1-.45.18H15.62a.73.73,0,0,1-.46-.15,1.71,1.71,0,0,1-.35-.36h0l-5.58-7.77-5.55,7.77a1.91,1.91,0,0,1-.33.36.68.68,0,0,1-.45.15Zm29.32,0H30.66a.65.65,0,0,1-.69-.69h0V200.67H24.21a.65.65,0,0,1-.69-.69h0v-1.26a.69.69,0,0,1,.19-.52.69.69,0,0,1,.5-.2H38.67a.69.69,0,0,1,.72.72h0V200a.69.69,0,0,1-.2.5.69.69,0,0,1-.52.19H32.94v17.64a.69.69,0,0,1-.2.5.69.69,0,0,1-.52.19ZM49,219H47.44a.66.66,0,0,1-.51-.19.71.71,0,0,1-.18-.5h0V198.72a.73.73,0,0,1,.18-.52.66.66,0,0,1,.51-.2h7.32a8.34,8.34,0,0,1,5.37,1.59,5.68,5.68,0,0,1,2,4.71h0A5.89,5.89,0,0,1,61,208.07a6,6,0,0,1-3.13,2h0l4.62,8a.75.75,0,0,1,.09.33h0a.56.56,0,0,1-.2.42.61.61,0,0,1-.43.18H60.46a1,1,0,0,1-.75-.27,4.94,4.94,0,0,1-.42-.54h0l-4.35-7.62H49.69v7.74a.69.69,0,0,1-.2.5A.69.69,0,0,1,49,219Zm.72-18.48V208h5a5.08,5.08,0,0,0,3.36-.94,3.49,3.49,0,0,0,1.11-2.81h0a3.51,3.51,0,0,0-1.1-2.79,5,5,0,0,0-3.37-1h-5Zm34,18.48H71.09a.66.66,0,0,1-.51-.19.71.71,0,0,1-.18-.5h0V198.72a.73.73,0,0,1,.18-.52.66.66,0,0,1,.51-.2H83.48a.66.66,0,0,1,.51.2.73.73,0,0,1,.18.52h0v1.14a.63.63,0,0,1-.69.69H73.28v6.57h9.54a.66.66,0,0,1,.51.2.73.73,0,0,1,.18.52h0V209a.71.71,0,0,1-.18.5.66.66,0,0,1-.51.19H73.28v6.81H83.72a.63.63,0,0,1,.69.69h0v1.17a.71.71,0,0,1-.18.5.66.66,0,0,1-.51.19Zm9,0H91.17a.62.62,0,0,1-.6-.6h0a2,2,0,0,1,0-.33h0L98,198.66a1.21,1.21,0,0,1,.33-.48A1,1,0,0,1,99,198h2a1,1,0,0,1,.63.18,1.21,1.21,0,0,1,.33.48h0l7.41,19.41a1.05,1.05,0,0,1,.06.33h0a.62.62,0,0,1-.6.6h-1.53a.69.69,0,0,1-.53-.18,1.11,1.11,0,0,1-.22-.33h0l-1.65-4.26H95.1l-1.65,4.26a.69.69,0,0,1-.21.33.73.73,0,0,1-.54.18ZM100,201l-4,10.65h8.1Zm18.82,18h-1.47a.65.65,0,0,1-.69-.69h0V198.72a.69.69,0,0,1,.19-.52.69.69,0,0,1,.5-.2h1.5a.73.73,0,0,1,.54.18,1.29,1.29,0,0,1,.24.3h0L126,210.6l6.39-12.12a1.38,1.38,0,0,1,.22-.3.69.69,0,0,1,.53-.18h1.47a.69.69,0,0,1,.72.72h0v19.59a.69.69,0,0,1-.2.5.69.69,0,0,1-.52.19h-1.47a.65.65,0,0,1-.69-.69h0V203.55l-5,9.78a1,1,0,0,1-.36.46,1,1,0,0,1-.6.17h-.93a1,1,0,0,1-.6-.17,1.32,1.32,0,0,1-.36-.46h0l-5-9.78v14.76a.69.69,0,0,1-.2.5.66.66,0,0,1-.49.19Zm44.66,0h-7a.66.66,0,0,1-.51-.19.71.71,0,0,1-.18-.5h0V198.72a.73.73,0,0,1,.18-.52.66.66,0,0,1,.51-.2h6.81a11.34,11.34,0,0,1,5,.93,5.8,5.8,0,0,1,2.76,2.75,10.52,10.52,0,0,1,.9,4.45h0q0,1.35,0,2.37t0,2.34h0a11.3,11.3,0,0,1-.92,4.57,5.54,5.54,0,0,1-2.7,2.7,11.33,11.33,0,0,1-4.87.89Zm-4.71-18.45v15.9h4.56a8,8,0,0,0,3.3-.57,3.5,3.5,0,0,0,1.78-1.83,8.68,8.68,0,0,0,.59-3.33h0c0-.6.06-1.12.06-1.57v-1.36c0-.45,0-1-.06-1.54h0a6.26,6.26,0,0,0-1.38-4.3c-.88-.93-2.36-1.4-4.44-1.4h-4.41Zm24,18.45h-1.53a.66.66,0,0,1-.51-.19.71.71,0,0,1-.18-.5h0V198.72a.73.73,0,0,1,.18-.52.66.66,0,0,1,.51-.2h7.32a8.34,8.34,0,0,1,5.37,1.59,5.68,5.68,0,0,1,2,4.71h0a5.89,5.89,0,0,1-1.16,3.77,6,6,0,0,1-3.13,2h0l4.62,8a.75.75,0,0,1,.09.33h0a.56.56,0,0,1-.2.42.61.61,0,0,1-.43.18h-1.44a1,1,0,0,1-.75-.27,4.94,4.94,0,0,1-.42-.54h0l-4.35-7.62h-5.25v7.74a.69.69,0,0,1-.2.5.69.69,0,0,1-.52.19Zm.72-18.48V208h4.95a5.08,5.08,0,0,0,3.36-.94,3.49,3.49,0,0,0,1.11-2.81h0a3.51,3.51,0,0,0-1.1-2.79,5,5,0,0,0-3.37-1h-4.95Zm23,18.48h-1.59a.66.66,0,0,1-.51-.19.71.71,0,0,1-.18-.5h0V198.69a.69.69,0,0,1,.18-.49.66.66,0,0,1,.51-.2h1.59a.66.66,0,0,1,.51.2.69.69,0,0,1,.18.49h0v19.62a.71.71,0,0,1-.18.5.66.66,0,0,1-.51.19Zm18.1,0h-2a1.09,1.09,0,0,1-.71-.21,1.43,1.43,0,0,1-.4-.57h0l-6.69-19.29a1.05,1.05,0,0,1-.06-.33h0a.62.62,0,0,1,.6-.6h1.56a.74.74,0,0,1,.55.2,1.14,1.14,0,0,1,.26.34h0l5.85,17,5.88-17a1.19,1.19,0,0,1,.24-.34.7.7,0,0,1,.54-.2h1.56a.61.61,0,0,1,.43.18.56.56,0,0,1,.2.42h0a1.05,1.05,0,0,1-.06.33h0l-6.72,19.29a1.22,1.22,0,0,1-.38.57,1.06,1.06,0,0,1-.7.21Zm28.78,0H240.7a.66.66,0,0,1-.51-.19.71.71,0,0,1-.18-.5h0V198.72a.73.73,0,0,1,.18-.52.66.66,0,0,1,.51-.2h12.39a.66.66,0,0,1,.51.2.73.73,0,0,1,.18.52h0v1.14a.63.63,0,0,1-.69.69h-10.2v6.57h9.54a.66.66,0,0,1,.51.2.73.73,0,0,1,.18.52h0V209a.71.71,0,0,1-.18.5.66.66,0,0,1-.51.19h-9.54v6.81h10.44a.63.63,0,0,1,.69.69h0v1.17a.71.71,0,0,1-.18.5.66.66,0,0,1-.51.19Z"/></g></g></svg>